<svg xmlns="http://www.w3.org/2000/svg" version="1.1" xmlns:xlink="http://www.w3.org/1999/xlink" width="1000" height="1000"><style>
    #light-icon {
      display: inline;
    }
    #dark-icon {
      display: none;
    }

    @media (prefers-color-scheme: dark) {
      #light-icon {
        display: none;
      }
      #dark-icon {
        display: inline;
      }
    }
  </style><g id="light-icon"><svg xmlns="http://www.w3.org/2000/svg" version="1.1" xmlns:xlink="http://www.w3.org/1999/xlink" width="1000" height="1000"><g><g transform="matrix(15.625,0,0,15.625,0,0)"><svg xmlns="http://www.w3.org/2000/svg" width="64" height="64" fill="none"><path fill="#EEF2E8" d="M0 0h64v64H0z"></path><path d="M41.957 34.884c-.895.706-1.857 1.202-2.937 1.45-.651.149-1.318.38-1.967.351-.99-.044-2.001-.183-2.95-.46-1.522-.446-2.782-1.36-3.747-2.62-.662-.865-1.19-1.791-1.491-2.874-.294-1.056-.444-2.101-.322-3.17.171-1.503.663-2.889 1.584-4.136.696-.942 1.499-1.733 2.506-2.314a9.735 9.735 0 0 1 3.737-1.24c1.871-.234 3.531.252 5.063 1.154 1.475.868 2.63 2.145 3.27 3.75 1.01 2.525.894 5.018-.429 7.444-.576 1.056-1.426 1.85-2.317 2.665Z" fill="#D4681E"></path><path d="M36.733 6.478c-.47-.27-.945-.529-1.415-.796-.507-.288-1.006-.589-1.517-.868a25 25 0 0 0-1.282-.65 2.005 2.005 0 0 0-1.488-.108c-.53.172-1.03.447-1.524.712-.843.453-1.673.932-2.507 1.402l-.05.028c-.759.427-1.517.854-2.274 1.286-.55.314-1.094.64-1.644.954-.757.433-1.519.855-2.274 1.291-.713.413-1.419.84-2.131 1.254-.8.464-1.605.917-2.404 1.38-.603.351-1.201.712-1.802 1.067-.587.346-1.189.67-1.759 1.042-.954.623-1.841 1.333-2.546 2.238-.346.444-.68.904-.96 1.392-.222.388-.34.834-.527 1.244-.384.838-.493 1.736-.552 2.636-.052.814-.027 1.634-.034 2.45-.013 1.369-.022 2.737-.035 4.105-.01 1.09-.043 2.178-.034 3.267.02 2.6-.139 5.206.288 7.79.075.452.154.917.326 1.337.316.77.706 1.5 1.202 2.182a9.021 9.021 0 0 0 2.694 2.444 8.776 8.776 0 0 0 4.523 1.259c1.968.01 3.937-.019 5.905-.032.312-.002.625.012.934-.022.39-.042.552.125.552.528-.007 3.133-.004 6.265-.004 9.397 0 .378-.016.394-.407.394-1.806 0-3.612.004-5.417-.006-.215-.001-.355.044-.362.341-.017.763-.009 1.525-.003 2.288.001.21.11.328.337.328 2.865-.002 5.729-.003 8.593 0 .228 0 .313-.1.313-.323-.006-4.756-.006-9.512-.017-14.267 0-.25-.071-.508-.148-.75-.145-.456-.603-.595-.924-.932-.878-.924-2.825-.647-4.301-.647s-5.757.209-7.233-.16-1.964-.886-2.628-2.337c-.665-1.452-1.138-2.116-1.138-7.036s-.023-5.61-.027-5.94c-.015-1.501-.008-3.002-.002-4.502 0-.038-.141-1.022.154-2.4s.689-1.722.689-1.722c.031-.148.393-.473.516-.615.52-.596 1.107-.903 1.764-1.347.226-.153.47-.281.71-.412l3.39-1.894c1.042-.605 2.092-1.196 3.131-1.806l3.252-1.915.05-.03c.562-.313 1.116-.643 1.673-.964.626-.361 1.252-.722 1.879-1.08.554-.318 1.108-.635 1.664-.948.206-.116.963-.527 1.332-.699.369-.172.615-.098.812 0 .197.098 1.2.662 1.46.795.05.026.1.05.151.073.477.274.924.523 1.366.78.737.43 1.468.87 2.207 1.298.507.294 1.022.575 1.534.862.164.093.49.3.49.3l2.116 1.206s.63.267.966.479c.354.224.718.432 1.081.642.65.374 1.303.741 1.95 1.118l.824.467 1.476.91s.8.47 1.114.631c.17.088.334.193.495.298.658.43.676.258 1.171.867.222.273.191-.024 1.048 1.378s.654 3.398.654 3.398v9.304c0 2.23.278 6.831-.654 8.573s-1.023 1.817-2.714 2.268c-1.691.45-7.492.16-7.492.16s-3.654-.118-4.556.76c-.516.502-.645 1.152-.64 1.884.018 3.059.01 6.117.004 9.176 0 .503-.054 1.006-.059 1.51-.01 1.049-.012 2.099.002 3.148.005.404.077.45.482.449l8.272-.01c.309 0 .413-.087.415-.37.004-.705 0-1.41.002-2.116 0-.309-.152-.469-.477-.467-1.781.008-3.562.006-5.343 0-.108-.001-.216-.069-.323-.105-.032-.077-.09-.154-.09-.231a4478.63 4478.63 0 0 1-.002-9.698c0-.051.028-.102.066-.154.024 0 .017-.006.017-.006.06-.039.118-.078.212-.115l.384.014h.001c.62-.004 1.241-.008 1.862-.01.097 0 .195.014.293.015 1.145.011 2.29.02 3.435.032.056 0 .113.011.201.031a2.4 2.4 0 0 0 .296.02c.059-.018.117-.046.177-.05.33-.023.66-.039 1.025-.053.082.003.129.004.176.004.16-.035.321-.07.51-.102a.962.962 0 0 0 .081.004c.129-.036.257-.07.412-.102.045.003.063.003.08.003h.001c.096-.035.193-.07.315-.102.044.004.061.004.079.004.153-.068.302-.144.459-.2.203-.075.412-.134.644-.197a.736.736 0 0 0 .08.004c.422-.22.844-.44 1.297-.674a7.394 7.394 0 0 0 1.853-1.433c.422-.449.764-.974 1.13-1.474a6.028 6.028 0 0 0 .887-1.817c.345-1.133.428-2.308.445-3.482.024-1.696.004-3.394-.007-5.09-.02-3.352-.037-6.703-.082-10.054a7.76 7.76 0 0 0-.237-1.712c-.136-.56-.37-1.095-.567-1.639-.234-.647-.612-1.217-1.027-1.755-.562-.726-1.206-1.378-1.979-1.889-.51-.337-1.007-.694-1.531-1.008-.728-.435-1.48-.833-2.215-1.257-.734-.424-1.459-.864-2.191-1.29a161.63 161.63 0 0 0-1.843-1.059c-.808-.456-1.62-.905-2.426-1.363-.622-.354-1.237-.72-1.859-1.075-.356-.203-.723-.388-1.079-.591-.542-.31-1.077-.632-1.618-.943Z" fill="#2E5428"></path><path d="M30.47 2.177a3.967 3.967 0 0 1 2.889.215c.46.219.923.451 1.382.702.521.285 1.105.633 1.546.884.4.228.978.545 1.422.8.689.396.974.574 1.615.94.151.087.31.172.494.271.177.095.38.204.583.32.32.183.638.368.945.547.31.18.611.356.912.527.833.473 1.563.875 2.422 1.361.622.352 1.245.709 1.865 1.07.797.465 1.43.85 2.184 1.287.624.36 1.524.844 2.241 1.273.57.341 1.185.776 1.605 1.054l.093.062c.954.648 1.72 1.441 2.357 2.264.465.602.984 1.36 1.32 2.288l.027.075c.148.398.442 1.115.6 1.767a9.71 9.71 0 0 1 .294 2.15l.008.63c.028 2.309.044 4.618.058 6.923l.024 3.782c.009 1.17.015 2.355.002 3.54l-.004.323c-.018 1.23-.104 2.624-.53 4.024a8.013 8.013 0 0 1-1.128 2.332l-.052.071c-.28.384-.751 1.093-1.283 1.66-.667.71-.938 1.35-2.34 1.81L52 47.14l-.023.011c-.448.23-.865.448-1.288.669l-.425.223h-.306c-.09.026-.161.049-.227.073-.078.028-.053.025-.337.151l-.385.171-.189-.001-.256.097h-.228l-.103.028-.022.006-.022.005-.243.061-.16-.001c-.072.014-.147.03-.236.05l-.206.047h-.225c-.042 0-.095 0-.168-.003-.248.01-.476.022-.698.035l-.229.067h-.317c-.097-.002-.278-.005-.515-.036l-.092-.012-.02-.005-3.287-.03a3.33 3.33 0 0 1-.297-.015c-.187 0-.373.002-.56.003l.001 6.385c1.264.003 2.527.003 3.788-.003.458-.003 1.171.108 1.754.689.584.582.694 1.293.693 1.743-.002.675.002 1.42-.002 2.124-.002.282-.038 1.114-.755 1.748-.606.534-1.313.567-1.572.57h-.045l-4.136.004-4.137.005c-.107 0-.328 0-.564-.039a2.231 2.231 0 0 1-1.133-.53 2.2 2.2 0 0 1-.679-1.168 3.124 3.124 0 0 1-.068-.646 143.38 143.38 0 0 1-.002-3.193c.003-.306.02-.605.034-.845.014-.257.024-.458.025-.65.006-3.06.013-6.11-.005-9.16-.006-.945.155-2.25 1.233-3.3.63-.614 1.481-.867 2.004-.992.61-.146 1.265-.224 1.828-.268a21.623 21.623 0 0 1 2.098-.057l.04.001h.017l.05.003-.05-.002h.018l.018.001h.013l.046.003a53.49 53.49 0 0 0 .844.034c.56.02 1.32.042 2.13.05.812.008 1.655.002 2.385-.032.78-.036 1.271-.098 1.47-.151a9.94 9.94 0 0 0 .824-.241.984.984 0 0 0 .07-.029c.019-.023.05-.065.095-.136.117-.182.261-.444.502-.892.072-.136.19-.483.284-1.123.09-.604.139-1.327.161-2.112.047-1.63-.023-3.163-.023-4.414v-9.404l.01-.09.001-.031a5.742 5.742 0 0 0-.01-.79c-.046-.543-.17-1.04-.368-1.365a10.769 10.769 0 0 0-.496-.763 2.689 2.689 0 0 1-.399-.4 3.85 3.85 0 0 0-.072-.086 6.702 6.702 0 0 1-.65-.377 3.82 3.82 0 0 0-.32-.195 21.921 21.921 0 0 1-.756-.42 69.228 69.228 0 0 1-.417-.243l-.028-.016-.007-.004-.002-.001-.019-.011-.017-.011-1.445-.891-.083-.047-.261-.148-.28-.159-.187-.106c-.66-.383-1.255-.717-1.945-1.115-.35-.202-.755-.433-1.151-.684a4.476 4.476 0 0 0-.39-.2l-.214-.096-.062-.027a.824.824 0 0 0-.014-.006l-.002-.001-.106-.045-2.258-1.286-.04-.026-.003-.002-.009-.006-.035-.022-.119-.075a7.602 7.602 0 0 0-.231-.14c-.484-.271-1.035-.573-1.557-.875-.712-.413-1.533-.905-2.212-1.3-.422-.246-.804-.459-1.285-.734l-.008-.004a4.62 4.62 0 0 1-.132-.065c-.163-.084-.516-.279-.805-.438a241.44 241.44 0 0 0-.184-.102c-.3.157-.63.337-.758.409-.549.308-1.096.622-1.65.94-.625.357-1.25.716-1.875 1.077-.52.3-1.109.65-1.68.969l-.004.002-.023.013-3.257 1.92-.003.001c-1.025.6-2.143 1.231-3.134 1.807l-.014.008-3.403 1.902-.011.006-.011.007c-.275.148-.42.226-.548.313-.831.561-1.07.663-1.356.98l-.028.031a3.615 3.615 0 0 1-.117.128l-.053.054-.04.189-.31.271c-.053.119-.15.371-.245.817a6.371 6.371 0 0 0-.145 1.299 4.671 4.671 0 0 0 .02.44l.003.038a4.363 4.363 0 0 1 .01.173v.046c-.004 1.505-.012 2.99.004 4.474.003.33.027 1.03.027 5.96 0 2.426.119 3.659.278 4.419.146.702.32 1.013.681 1.802.312.681.467.867.551.945.05.044.184.16.77.306.452.113 1.624.166 3.133.16.7-.003 1.405-.017 2.037-.03.616-.014 1.191-.028 1.588-.028.475 0 1.669-.069 2.49-.02.852.05 2.225.232 3.213 1.257l.032.024.111.081c.047.034.114.083.184.137.281.218.795.66 1.051 1.43l.012.038.034.106c.08.265.196.694.206 1.177v.054l.004 1.784c.008 4.163.008 8.328.013 12.486 0 .288-.04.99-.602 1.59-.589.626-1.324.696-1.673.695a5465.48 5465.48 0 0 0-8.59 0c-.433 0-1.093-.115-1.636-.655a2.287 2.287 0 0 1-.663-1.62c-.005-.75-.014-1.547.004-2.344l.001-.039c.016-.412.14-1.195.866-1.753a2.332 2.332 0 0 1 1.392-.467h.074l.674.004c1.058.004 2.116.004 3.178.003 0-2.123-.001-4.248.002-6.373-1.792.014-3.62.038-5.438.028a10.735 10.735 0 0 1-5.441-1.49l-.08-.047a10.98 10.98 0 0 1-3.27-2.972 12.299 12.299 0 0 1-1.432-2.593c-.27-.658-.377-1.341-.446-1.76-.46-2.785-.295-5.677-.315-8.094-.009-1.107.025-2.27.035-3.302.013-1.37.022-2.726.034-4.103.007-.712-.018-1.674.04-2.56.06-.946.185-2.144.724-3.324.06-.13.1-.248.202-.515.086-.225.216-.554.407-.889l.033-.056a14.25 14.25 0 0 1 1.081-1.566c.888-1.14 1.97-1.988 3.022-2.674.616-.402 1.337-.797 1.833-1.09l.442-.262c.45-.267.915-.545 1.373-.81.406-.236.813-.469 1.213-.698.402-.23.797-.455 1.19-.683.6-.348 1.491-.884 2.136-1.256.742-.429 1.572-.89 2.28-1.296.266-.152.532-.307.807-.468.273-.159.554-.324.84-.486.762-.435 1.525-.866 2.283-1.292l.05-.028c.81-.456 1.675-.956 2.543-1.421.448-.241 1.114-.611 1.843-.85l.046-.014Zm10.135 12.248Z" fill="#2E5428"></path><path d="M22.197 45.714a2.21 2.21 0 0 1-.084.004l-.058-2.206.142 2.202Zm-.142-2.202-.11-1.71.064-.004.046 1.714Z" fill="#2E5428"></path><path d="M39.66 46.801a54.064 54.064 0 0 1 1.858-.03c.097 0 .195.015.293.016l3.435.031a.745.745 0 0 1 .183.031c-.083.023-.18.041-.277.041a1831.22 1831.22 0 0 1-5.241-.012.636.636 0 0 1-.25-.077Z" fill="#EEF2E8"></path><path d="M41.511 44.811c.14 0 .264.01.306.014l.034.002 3.413.031.057.001c.279.01.502.066.625.1l6.904 1.889-6.903 1.892a3.02 3.02 0 0 1-.797.11c-1.748-.001-3.497-.005-5.247-.011a2.342 2.342 0 0 1-.752-.13c-.148-.051-.278-.112-.306-.125l.742-3.742a54.78 54.78 0 0 1 1.924-.03Z" fill="#2E5428"></path><path d="M49.8 46.09a35.01 35.01 0 0 1 1.265-.671c.006.025.002.07-.02.08-.407.202-.816.4-1.245.59Z" fill="#EEF2E8"></path><path d="M52.983 45.015a2.082 2.082 0 0 1-.2 1.403 1.992 1.992 0 0 1-.868.838c-.419.207-.853.417-1.315.623l-1.076-2.136.111-.023-.412-.922a2.17 2.17 0 0 0-.066.217l-.319-.633c.44-.247.89-.482 1.338-.71l2.28-1.16.527 2.503Zm-3.459.728-.377.08a1.838 1.838 0 0 1 .01-.808l.367.728Z" fill="#2E5428"></path><path d="M48.62 46.483c.132-.075.281-.15.438-.208.203-.074.412-.133.632-.191-.179.105-.365.217-.564.295-.153.06-.323.076-.506.104Z" fill="#EEF2E8"></path><path d="M50.685 47.773c-.137.08-.47.285-.847.432a4.04 4.04 0 0 1-.918.215l-1.268-3.642c.183-.104.437-.236.733-.344a9.19 9.19 0 0 1 .805-.246l1.495 3.584Z" fill="#2E5428"></path><path d="M39.078 46.884a.56.56 0 0 1 .171-.111.557.557 0 0 1-.17.111Z" fill="#EEF2E8"></path><path d="M40.65 48.145a2.51 2.51 0 0 1-.755.521l-2.21-3.16c.251-.255.533-.422.779-.529l2.186 3.168Zm-.615.424a1.51 1.51 0 0 0 .437-.306l-1.006-.995.57 1.3Zm-1.773-3.467a1.426 1.426 0 0 0-.413.3l.998.977-.585-1.277Z" fill="#2E5428"></path></svg></g></g></svg></g><g id="dark-icon"><svg xmlns="http://www.w3.org/2000/svg" version="1.1" xmlns:xlink="http://www.w3.org/1999/xlink" width="1000" height="1000"><g><g transform="matrix(15.625,0,0,15.625,0,0)"><svg xmlns="http://www.w3.org/2000/svg" width="64" height="64" fill="none"><path fill="#1C2818" d="M0 0h64v64H0z"></path><path d="M41.957 34.884c-.895.706-1.857 1.202-2.937 1.45-.651.149-1.318.38-1.967.351-.99-.044-2.001-.183-2.95-.46-1.522-.446-2.782-1.36-3.747-2.62-.662-.865-1.19-1.791-1.491-2.874-.294-1.056-.444-2.101-.322-3.17.171-1.503.663-2.889 1.584-4.136.696-.942 1.499-1.733 2.506-2.314a9.735 9.735 0 0 1 3.737-1.24c1.871-.234 3.531.252 5.063 1.154 1.475.868 2.63 2.145 3.27 3.75 1.01 2.525.894 5.018-.429 7.444-.576 1.056-1.426 1.85-2.317 2.665Z" fill="#EEF2E8"></path><path d="M36.733 6.478c-.47-.27-.945-.529-1.415-.796-.507-.288-1.006-.589-1.517-.868a25 25 0 0 0-1.282-.65 2.005 2.005 0 0 0-1.488-.108c-.53.172-1.03.447-1.524.712-.843.453-1.673.932-2.507 1.402l-.05.028c-.759.427-1.517.854-2.274 1.286-.55.314-1.094.64-1.644.954-.757.433-1.519.855-2.274 1.291-.713.413-1.419.84-2.131 1.254-.8.464-1.605.917-2.404 1.38-.603.351-1.201.712-1.802 1.067-.587.346-1.189.67-1.759 1.042-.954.623-1.841 1.333-2.546 2.238-.346.444-.68.904-.96 1.392-.222.388-.34.834-.527 1.244-.384.838-.493 1.736-.552 2.636-.052.814-.027 1.634-.034 2.45-.013 1.369-.022 2.737-.035 4.105-.01 1.09-.043 2.178-.034 3.267.02 2.6-.139 5.206.288 7.79.075.452.154.917.326 1.337.316.77.706 1.5 1.202 2.182a9.021 9.021 0 0 0 2.694 2.444 8.776 8.776 0 0 0 4.523 1.259c1.968.01 3.937-.019 5.905-.032.312-.002.625.012.934-.022.39-.042.552.125.552.528-.007 3.133-.004 6.265-.004 9.397 0 .378-.016.394-.407.394-1.806 0-3.612.004-5.417-.006-.215-.001-.355.044-.362.341-.017.763-.009 1.525-.003 2.288.001.21.11.328.337.328 2.865-.002 5.729-.003 8.593 0 .228 0 .313-.1.313-.323-.006-4.756-.006-9.512-.017-14.267 0-.25-.071-.508-.148-.75-.145-.456-.603-.595-.924-.932-.878-.924-2.825-.647-4.301-.647s-5.757.209-7.233-.16-1.964-.886-2.628-2.337c-.665-1.452-1.138-2.116-1.138-7.036s-.023-5.61-.027-5.94c-.015-1.501-.008-3.002-.002-4.502 0-.038-.141-1.022.154-2.4s.689-1.722.689-1.722c.031-.148.393-.473.516-.615.52-.596 1.107-.903 1.764-1.347.226-.153.47-.281.71-.412l3.39-1.894c1.042-.605 2.092-1.196 3.131-1.806l3.252-1.915.05-.03c.562-.313 1.116-.643 1.673-.964.626-.361 1.252-.722 1.879-1.08.554-.318 1.108-.635 1.664-.948.206-.116.963-.527 1.332-.699.369-.172.615-.098.812 0 .197.098 1.2.662 1.46.795.05.026.1.05.151.073.477.274.924.523 1.366.78.737.43 1.468.87 2.207 1.298.507.294 1.022.575 1.534.862.164.093.49.3.49.3l2.116 1.206s.63.267.966.479c.354.224.718.432 1.081.642.65.374 1.303.741 1.95 1.118l.824.467 1.476.91s.8.47 1.114.631c.17.088.334.193.495.298.658.43.676.258 1.171.867.222.273.191-.024 1.048 1.378s.654 3.398.654 3.398v9.304c0 2.23.278 6.831-.654 8.573s-1.023 1.817-2.714 2.268c-1.691.45-7.492.16-7.492.16s-3.654-.118-4.556.76c-.516.502-.645 1.152-.64 1.884.018 3.059.01 6.117.004 9.176 0 .503-.054 1.006-.059 1.51-.01 1.049-.012 2.099.002 3.148.005.404.077.45.482.449l8.272-.01c.309 0 .413-.087.415-.37.004-.705 0-1.41.002-2.116 0-.309-.152-.469-.477-.467-1.781.008-3.562.006-5.343 0-.108-.001-.216-.069-.323-.105-.032-.077-.09-.154-.09-.231a4478.63 4478.63 0 0 1-.002-9.698c0-.051.028-.102.066-.154.024 0 .017-.006.017-.006.06-.039.118-.078.212-.115l.384.014h.001c.62-.004 1.241-.008 1.862-.01.097 0 .195.014.293.015 1.145.011 2.29.02 3.435.032.056 0 .113.011.201.031a2.4 2.4 0 0 0 .296.02c.059-.018.117-.046.177-.05.33-.023.66-.039 1.025-.053.082.003.129.004.176.004.16-.035.321-.07.51-.102a.962.962 0 0 0 .081.004c.129-.036.257-.07.412-.102.045.003.063.003.08.003h.001c.096-.035.193-.07.315-.102.044.004.061.004.079.004.153-.068.302-.144.459-.2.203-.075.412-.134.644-.197a.736.736 0 0 0 .08.004c.422-.22.844-.44 1.297-.674a7.394 7.394 0 0 0 1.853-1.433c.422-.449.764-.974 1.13-1.474a6.028 6.028 0 0 0 .887-1.817c.345-1.133.428-2.308.445-3.482.024-1.696.004-3.394-.007-5.09-.02-3.352-.037-6.703-.082-10.054a7.76 7.76 0 0 0-.237-1.712c-.136-.56-.37-1.095-.567-1.639-.234-.647-.612-1.217-1.027-1.755-.562-.726-1.206-1.378-1.979-1.889-.51-.337-1.007-.694-1.531-1.008-.728-.435-1.48-.833-2.215-1.257-.734-.424-1.459-.864-2.191-1.29a161.63 161.63 0 0 0-1.843-1.059c-.808-.456-1.62-.905-2.426-1.363-.622-.354-1.237-.72-1.859-1.075-.356-.203-.723-.388-1.079-.591-.542-.31-1.077-.632-1.618-.943Z" fill="#EEF2E8"></path><path d="M30.47 2.177a3.967 3.967 0 0 1 2.889.215c.46.219.923.451 1.382.702.521.285 1.105.633 1.546.884.4.228.978.545 1.422.8.689.396.974.574 1.615.94.151.087.31.172.494.271.177.095.38.204.583.32.32.183.638.368.945.547.31.18.611.356.912.527.833.473 1.563.875 2.422 1.361.622.352 1.245.709 1.865 1.07.797.465 1.43.85 2.184 1.287.624.36 1.524.844 2.241 1.273.57.341 1.184.776 1.605 1.054l.093.062c.954.648 1.72 1.441 2.357 2.264.465.602.984 1.36 1.32 2.288l.027.075c.148.398.442 1.115.6 1.767a9.71 9.71 0 0 1 .294 2.15l.008.63c.028 2.309.044 4.618.058 6.923l.024 3.782c.009 1.17.015 2.355.002 3.54l-.004.323c-.018 1.23-.104 2.624-.53 4.024a8.013 8.013 0 0 1-1.128 2.332l-.052.071c-.28.384-.751 1.093-1.283 1.66-.667.71-.938 1.35-2.34 1.81L52 47.14l-.023.011c-.448.23-.865.448-1.288.669l-.425.223h-.306c-.09.026-.161.049-.227.073-.078.028-.053.025-.337.151l-.385.171-.189-.001-.256.097h-.228l-.103.028-.022.006-.022.005-.243.061-.16-.001c-.072.014-.147.03-.236.05l-.206.047h-.225c-.042 0-.095 0-.168-.003-.248.01-.476.022-.698.035l-.229.067h-.317c-.097-.002-.278-.005-.515-.036l-.092-.012-.02-.005-3.287-.03a3.33 3.33 0 0 1-.297-.015c-.187 0-.373.002-.56.003l.001 6.385c1.264.003 2.527.003 3.788-.003.458-.003 1.171.108 1.754.689.584.582.694 1.293.693 1.743-.002.675.002 1.42-.002 2.124-.002.282-.038 1.114-.755 1.748-.606.534-1.313.567-1.572.57h-.045l-4.136.004-4.137.005c-.107 0-.328 0-.564-.039a2.231 2.231 0 0 1-1.133-.53 2.2 2.2 0 0 1-.679-1.168 3.124 3.124 0 0 1-.068-.646 143.38 143.38 0 0 1-.002-3.193c.003-.306.02-.605.034-.845.014-.257.024-.458.025-.65.006-3.06.013-6.11-.005-9.16-.006-.945.155-2.25 1.233-3.3.63-.614 1.481-.867 2.004-.992.61-.146 1.265-.224 1.828-.268a21.623 21.623 0 0 1 2.098-.057l.04.001h.017l.05.003-.05-.002h.018l.018.001h.013l.046.003a53.49 53.49 0 0 0 .844.034c.56.02 1.32.042 2.13.05.812.008 1.655.002 2.385-.032.78-.036 1.271-.098 1.47-.151a9.94 9.94 0 0 0 .824-.241.984.984 0 0 0 .07-.029c.019-.023.05-.065.095-.136.117-.182.261-.444.502-.892.072-.136.19-.483.284-1.123.09-.604.139-1.327.161-2.112.047-1.63-.023-3.163-.023-4.414v-9.404l.01-.09.001-.031a5.742 5.742 0 0 0-.01-.79c-.046-.543-.17-1.04-.368-1.365a10.769 10.769 0 0 0-.496-.763 2.689 2.689 0 0 1-.399-.4 3.85 3.85 0 0 0-.072-.086 6.685 6.685 0 0 1-.65-.377 3.82 3.82 0 0 0-.32-.195 21.921 21.921 0 0 1-.756-.42 69.228 69.228 0 0 1-.417-.243l-.028-.016-.007-.004-.002-.001-.019-.011-.017-.011-1.445-.891-.083-.047-.261-.148-.28-.159-.187-.106c-.66-.383-1.255-.717-1.945-1.115-.35-.202-.755-.433-1.151-.684a4.476 4.476 0 0 0-.39-.2l-.214-.096-.062-.027a.824.824 0 0 0-.014-.006l-.002-.001-.106-.045-2.258-1.286-.04-.026-.003-.002-.009-.006-.035-.022-.119-.075a7.602 7.602 0 0 0-.231-.14c-.484-.271-1.035-.573-1.557-.875-.712-.413-1.533-.905-2.212-1.3-.422-.246-.804-.459-1.285-.734l-.008-.004a4.62 4.62 0 0 1-.132-.065c-.163-.084-.516-.279-.805-.438a241.44 241.44 0 0 0-.184-.102c-.3.157-.63.337-.758.409-.549.308-1.096.622-1.65.94-.625.357-1.25.716-1.875 1.077-.52.3-1.109.65-1.68.969l-.004.002-.023.013-3.257 1.92-.003.001c-1.025.6-2.143 1.231-3.134 1.807l-.014.008-3.403 1.902-.011.006-.011.007c-.275.148-.42.226-.548.313-.831.561-1.07.663-1.356.98l-.028.031a3.615 3.615 0 0 1-.117.128l-.053.054-.04.189-.31.271c-.053.119-.15.371-.245.817a6.371 6.371 0 0 0-.145 1.299 4.671 4.671 0 0 0 .02.44l.003.038a4.363 4.363 0 0 1 .01.173v.046c-.004 1.505-.012 2.99.004 4.474.003.33.027 1.03.027 5.96 0 2.426.119 3.659.278 4.419.146.702.32 1.013.681 1.802.312.681.467.867.551.945.05.044.184.16.77.306.452.113 1.624.166 3.133.16.7-.003 1.405-.017 2.037-.03.616-.014 1.191-.028 1.588-.028.475 0 1.669-.069 2.49-.02.852.05 2.225.232 3.213 1.257l.032.024.111.081c.047.034.114.083.184.137.281.218.795.66 1.051 1.43l.012.038.034.106c.08.265.196.694.206 1.177v.054l.004 1.784c.008 4.163.008 8.328.013 12.486 0 .288-.04.99-.602 1.59-.589.626-1.324.696-1.673.695a5465.48 5465.48 0 0 0-8.59 0c-.433 0-1.093-.115-1.636-.655a2.287 2.287 0 0 1-.663-1.62c-.005-.75-.014-1.547.004-2.344l.001-.039c.016-.412.14-1.195.866-1.753a2.332 2.332 0 0 1 1.392-.467h.074l.674.004c1.058.004 2.116.004 3.178.003 0-2.123-.001-4.248.002-6.373-1.792.014-3.62.038-5.438.028a10.735 10.735 0 0 1-5.441-1.49l-.08-.047a10.98 10.98 0 0 1-3.27-2.972 12.298 12.298 0 0 1-1.432-2.593c-.27-.658-.377-1.341-.446-1.76-.46-2.785-.295-5.677-.315-8.094-.009-1.107.025-2.27.035-3.302.013-1.37.022-2.726.034-4.103.007-.712-.018-1.674.04-2.56.06-.946.185-2.144.724-3.324.06-.13.1-.248.202-.515.086-.225.216-.554.407-.889l.033-.056a14.25 14.25 0 0 1 1.081-1.566c.888-1.14 1.97-1.988 3.022-2.674.616-.402 1.337-.797 1.833-1.09l.442-.262c.45-.267.915-.545 1.373-.81.406-.236.813-.469 1.213-.698.402-.23.797-.455 1.19-.683.6-.348 1.491-.884 2.136-1.256.742-.429 1.572-.89 2.28-1.296.266-.152.532-.307.807-.468.273-.159.554-.324.84-.486.762-.435 1.525-.866 2.283-1.292l.05-.028c.81-.456 1.675-.956 2.543-1.421.448-.241 1.114-.611 1.843-.85l.046-.014Zm10.135 12.248Z" fill="#EEF2E8"></path><path d="M22.197 45.714a2.21 2.21 0 0 1-.084.004l-.058-2.206.142 2.202Zm-.142-2.202-.11-1.71.064-.004.046 1.714Zm17.605 3.289a54.064 54.064 0 0 1 1.858-.03c.097 0 .195.015.293.016l3.435.031a.745.745 0 0 1 .183.031c-.083.023-.18.041-.277.041a1831.22 1831.22 0 0 1-5.241-.012.636.636 0 0 1-.25-.077Z" fill="#EEF2E8"></path><path d="M41.511 44.811c.14 0 .265.01.306.014l.034.002 3.413.031.057.001c.279.01.502.066.625.1l6.904 1.889-6.903 1.892c-.185.05-.466.11-.797.11-1.748-.001-3.497-.005-5.247-.011a2.342 2.342 0 0 1-.752-.13c-.148-.051-.278-.112-.306-.125l.742-3.742a54.78 54.78 0 0 1 1.924-.03Z" fill="#EEF2E8"></path><path d="M49.8 46.09a35.01 35.01 0 0 1 1.265-.671c.006.025.002.07-.02.08-.407.202-.816.4-1.245.59Z" fill="#EEF2E8"></path><path d="M52.983 45.015a2.082 2.082 0 0 1-.2 1.403 1.992 1.992 0 0 1-.868.838c-.419.207-.853.417-1.315.623l-1.076-2.136.111-.023-.412-.922a2.17 2.17 0 0 0-.066.217l-.319-.633c.44-.247.89-.482 1.338-.71l2.28-1.16.527 2.503Zm-3.459.728-.377.08a1.838 1.838 0 0 1 .01-.808l.367.728Zm-.904.74c.132-.075.281-.15.438-.208.203-.074.412-.133.632-.191-.179.105-.365.217-.564.295-.153.06-.323.076-.506.104Z" fill="#EEF2E8"></path><path d="M50.685 47.773c-.137.08-.47.285-.847.432a4.04 4.04 0 0 1-.918.215l-1.268-3.642c.183-.104.437-.236.733-.344a9.19 9.19 0 0 1 .805-.246l1.495 3.584Zm-11.607-.889a.56.56 0 0 1 .171-.111.557.557 0 0 1-.17.111Z" fill="#EEF2E8"></path><path d="M40.65 48.145a2.51 2.51 0 0 1-.755.521l-2.21-3.16c.251-.255.533-.422.779-.529l2.186 3.168Zm-.615.424a1.51 1.51 0 0 0 .437-.306l-1.006-.995.57 1.3Zm-1.773-3.467a1.426 1.426 0 0 0-.413.3l.998.977-.585-1.277Z" fill="#EEF2E8"></path></svg></g></g></svg></g></svg>