<svg width="1661" height="550" fill="none" xmlns="http://www.w3.org/2000/svg"><path d="m1576.02 478.46-4.88 8.54h-5.37v-41.968h6.1c3.25 11.549 7.72 20.171 13.42 25.864 5.69 5.693 12.77 8.54 21.23 8.54 6.5 0 11.63-1.545 15.37-4.636 3.9-3.253 5.85-8.133 5.85-14.64 0-3.253-.73-5.937-2.19-8.052-1.3-2.277-3.99-4.799-8.05-7.564-4.07-2.928-10.09-6.832-18.06-11.712-7.32-4.717-13.42-8.947-18.3-12.688-4.88-3.741-8.54-7.727-10.98-11.956-2.44-4.229-3.66-9.353-3.66-15.372 0-7.483 1.63-13.989 4.88-19.52 3.25-5.693 7.56-10.085 12.93-13.176 5.53-3.253 11.71-4.88 18.55-4.88 4.39 0 8.94.732 13.66 2.196 4.72 1.301 8.87 3.091 12.44 5.368l4.88-5.124h4.64v35.136h-6.34c-3.58-9.923-7.49-16.999-11.72-21.228-4.23-4.229-9.43-6.344-15.61-6.344-5.53 0-10.01 1.464-13.42 4.392-3.26 2.928-4.88 6.995-4.88 12.2 0 5.368 1.87 9.76 5.61 13.176 3.9 3.416 10 7.727 18.3 12.932 9.43 5.856 17 10.98 22.69 15.372 5.7 4.229 9.84 8.621 12.45 13.176 2.6 4.392 3.9 9.679 3.9 15.86 0 11.387-3.82 20.415-11.47 27.084-7.48 6.669-17.24 10.004-29.28 10.004-6.34 0-12.28-.895-17.81-2.684-5.53-1.952-10.49-4.717-14.88-8.296Zm-45.93-20.984 7.56 6.832c-13.83 16.755-30.99 25.132-51.48 25.132-12.69 0-23.84-2.765-33.43-8.296-9.6-5.531-17.08-13.176-22.45-22.936-5.37-9.923-8.05-21.391-8.05-34.404 0-13.339 2.84-25.132 8.54-35.38 5.69-10.411 13.5-18.544 23.42-24.4 10.09-5.856 21.72-8.784 34.89-8.784 15.62 0 27.74 4.311 36.36 12.932 8.78 8.459 13.18 20.659 13.18 36.6 0 2.115-.49 3.497-1.47 4.148-.81.488-2.85.732-6.1.732h-80.27c-.33 1.301-.57 2.928-.74 4.88-.16 1.789-.24 3.823-.24 6.1 0 11.224 1.79 21.065 5.37 29.524s8.62 15.047 15.13 19.764c6.5 4.555 14.07 6.832 22.69 6.832 6.67 0 13.01-1.545 19.03-4.636 6.02-3.091 12.04-7.971 18.06-14.64Zm-77.6-59.048h44.9c6.67 0 10.74-.407 12.2-1.22 1.63-.813 2.44-2.684 2.44-5.612 0-7.483-2.44-13.42-7.32-17.812-4.88-4.555-11.39-6.832-19.52-6.832-8.62 0-15.7 2.684-21.23 8.052-5.53 5.205-9.35 13.013-11.47 23.424Zm-101.7 41.48v8.296c0 8.947.32 15.535.98 19.764.81 4.067 2.6 6.751 5.36 8.052 2.93 1.139 7.49 1.952 13.67 2.44V487h-64.91v-8.54c6.35-.325 10.98-1.139 13.91-2.44 2.93-1.301 4.8-3.904 5.61-7.808.98-4.067 1.47-10.167 1.47-18.3v-28.548c0-11.061-.17-19.683-.49-25.864-.33-6.344-1.14-10.899-2.44-13.664-1.3-2.765-3.42-4.473-6.34-5.124-2.93-.651-7-.976-12.2-.976v-8.54l42.7-9.272 3.41 30.256h.98c4.39-9.76 10.49-17.649 18.3-23.668 7.81-6.181 15.86-9.272 24.15-9.272 5.21 0 9.28 1.301 12.2 3.904 3.09 2.44 4.64 5.775 4.64 10.004 0 3.904-1.22 6.995-3.66 9.272-2.44 2.115-5.94 3.172-10.49 3.172-3.42 0-6.18-.488-8.3-1.464a146.243 146.243 0 0 1-5.61-3.172c-1.63-.976-3.42-1.464-5.37-1.464-4.39 0-8.78 2.847-13.17 8.54-4.4 5.531-7.81 12.607-10.25 21.228-1.3 4.555-2.36 9.841-3.17 15.86-.66 6.019-.98 12.281-.98 18.788Zm-104.66-19.276V396.72c0-8.947-.4-15.453-1.22-19.52-.65-4.067-2.44-6.751-5.37-8.052-2.76-1.301-7.32-2.277-13.66-2.928v-8.54h44.16v74.908c0 9.272.09 16.836.25 22.692.32 5.856.73 10.248 1.22 13.176.81 4.067 2.44 6.751 4.88 8.052 2.44 1.139 7.4 1.708 14.88 1.708v8.54l-40.26 2.928-2.68-29.28h-.98c-6.18 9.923-13.34 17.243-21.47 21.96-7.97 4.717-16.35 7.076-25.13 7.076-6.83 0-13.5-1.301-20.01-3.904-6.34-2.603-11.14-6.1-14.4-10.492-5.2-6.832-7.8-20.008-7.8-39.528V396.72c0-6.669-.25-11.956-.74-15.86-.32-3.904-1.13-6.832-2.44-8.784-1.3-1.952-3.33-3.253-6.1-3.904-2.6-.813-6.26-1.464-10.98-1.952v-8.54h44.17v66.612c0 17.568 2.11 30.419 6.34 38.552 4.23 7.971 10.82 11.956 19.77 11.956 14.31 0 25.45-9.353 33.42-28.06 1.63-3.741 2.69-7.239 3.18-10.492.65-3.416.97-8.621.97-15.616Zm-180.78-47.58h-14.64v-9.028c8.62-5.205 15.37-10.248 20.25-15.128 4.88-5.043 8.62-11.061 11.22-18.056h7.08v30.744h32.69v11.468h-32.69v74.176c0 11.387 1.14 19.276 3.41 23.668 2.44 4.392 6.92 6.588 13.42 6.588 4.07 0 7.57-.813 10.5-2.44 2.92-1.789 5.69-4.717 8.29-8.784l6.1 4.636c-4.72 12.363-15.61 18.544-32.69 18.544-10.74 0-18.96-2.603-24.65-7.808-5.53-5.205-8.29-12.525-8.29-21.96v-86.62Zm-139.927 42.944v32.696c0 8.784.325 15.209.976 19.276.813 4.067 2.684 6.751 5.612 8.052 2.928 1.301 7.482 2.196 13.664 2.684V487h-63.928v-8.296c6.018-.488 10.492-1.301 13.42-2.44 2.928-1.301 4.798-3.904 5.612-7.808.976-3.904 1.464-9.923 1.464-18.056v-32.452c0-9.597-.163-17.324-.488-23.18-.163-6.019-.488-10.085-.976-12.2-.976-4.392-2.684-7.157-5.124-8.296-2.44-1.301-7.239-1.952-14.396-1.952v-7.808l39.04-9.272 2.928 24.156h.976c6.181-7.645 13.42-13.583 21.716-17.812 8.458-4.229 17.486-6.344 27.084-6.344 7.482 0 14.314 1.22 20.496 3.66 6.181 2.44 10.901 5.775 14.151 10.004 2.77 3.741 4.72 8.621 5.86 14.64 1.14 5.856 1.7 13.989 1.7 24.4v40.748c0 8.784.41 15.209 1.22 19.276.82 4.067 2.61 6.751 5.37 8.052 2.93 1.301 7.32 2.196 13.18 2.684V487h-63.197v-8.296c6.181-.325 10.654-1.139 13.42-2.44 2.928-1.301 4.798-3.904 5.612-7.808.813-4.067 1.22-10.085 1.22-18.056v-32.208c0-18.381-2.115-31.232-6.344-38.552-4.23-7.483-11.387-11.224-21.472-11.224-7.158 0-13.827 1.952-20.008 5.856-6.182 3.741-10.98 8.947-14.396 15.616-1.139 2.115-2.034 4.229-2.684 6.344-.651 1.952-1.139 4.473-1.464 7.564-.163 2.928-.244 6.995-.244 12.2Zm-72.771 41.48 7.564 6.832c-13.827 16.755-30.988 25.132-51.484 25.132-12.688 0-23.831-2.765-33.428-8.296-9.598-5.531-17.08-13.176-22.448-22.936-5.368-9.923-8.052-21.391-8.052-34.404 0-13.339 2.846-25.132 8.54-35.38 5.693-10.411 13.501-18.544 23.424-24.4 10.085-5.856 21.716-8.784 34.892-8.784 15.616 0 27.734 4.311 36.356 12.932 8.784 8.459 13.176 20.659 13.176 36.6 0 2.115-.488 3.497-1.464 4.148-.814.488-2.847.732-6.1.732h-80.276c-.326 1.301-.57 2.928-.732 4.88-.163 1.789-.244 3.823-.244 6.1 0 11.224 1.789 21.065 5.368 29.524 3.578 8.459 8.621 15.047 15.128 19.764 6.506 4.555 14.07 6.832 22.692 6.832 6.669 0 13.013-1.545 19.032-4.636 6.018-3.091 12.037-7.971 18.056-14.64Zm-77.592-59.048h44.896c6.669 0 10.736-.407 12.2-1.22 1.626-.813 2.44-2.684 2.44-5.612 0-7.483-2.44-13.42-7.32-17.812-4.88-4.555-11.387-6.832-19.52-6.832-8.622 0-15.698 2.684-21.228 8.052-5.531 5.205-9.354 13.013-11.468 23.424Zm-153.036-58.56 43.432 109.8L708.4 343.772c1.627-4.067 2.928-7.483 3.904-10.248.976-2.765 1.627-5.205 1.952-7.32.488-2.115.732-4.067.732-5.856 0-4.392-1.383-7.483-4.148-9.272-2.765-1.789-7.727-2.684-14.884-2.684v-9.272h59.292v9.272c-7.483.813-13.095 2.603-16.836 5.368-3.741 2.765-6.995 7.564-9.76 14.396L662.528 489.44h-8.54l-62.952-152.012c-2.765-6.669-5.531-12.037-8.296-16.104-2.765-4.067-6.019-7.076-9.76-9.028-3.741-2.115-8.459-3.335-14.152-3.66v-9.516h79.544v9.516c-8.947 0-14.884.895-17.812 2.684-2.928 1.627-4.392 4.148-4.392 7.564 0 2.277.407 4.961 1.22 8.052.976 2.928 2.521 7.239 4.636 12.932Zm969.026-94.428c-6.99 0-12.28-2.277-15.86-6.832-3.57-4.555-5.36-10.98-5.36-19.276h-1.22c-4.4 7.971-10.33 14.315-17.82 19.032-7.48 4.555-15.77 6.832-24.88 6.832-6.67 0-12.45-1.22-17.33-3.66-4.88-2.44-8.7-5.775-11.47-10.004-2.6-4.392-3.9-9.516-3.9-15.372 0-7.645 2.85-14.64 8.54-20.984 5.69-6.507 16.02-13.013 30.99-19.52l35.13-15.372V150.28c0-10.248-2.11-17.731-6.34-22.448-4.07-4.88-10.57-7.32-19.52-7.32-5.2 0-9.03 1.057-11.47 3.172-2.27 2.115-4.47 6.344-6.59 12.688-1.78 4.555-3.57 7.645-5.36 9.272-1.63 1.627-4.07 2.44-7.32 2.44-3.91 0-6.92-1.057-9.03-3.172-2.12-2.115-3.17-5.124-3.17-9.028 0-7.808 4.14-13.827 12.44-18.056 8.3-4.392 20.09-6.588 35.38-6.588 16.43 0 27.98 2.847 34.65 8.54 6.83 5.693 10.25 15.535 10.25 29.524v54.656c0 10.085.97 17.243 2.92 21.472 1.96 4.229 5.05 6.344 9.28 6.344 1.62 0 3.49-.325 5.61-.976 2.28-.813 3.98-2.277 5.12-4.392l3.42 5.856c-1.95 3.741-5.53 6.913-10.74 9.516-5.2 2.44-10.65 3.66-16.35 3.66Zm-54.16-14.884c5.85 0 11.14-1.789 15.86-5.368 4.71-3.741 8.37-8.703 10.98-14.884 2.76-6.181 4.14-12.932 4.14-20.252v-19.276c-12.36 4.717-22.2 9.353-29.52 13.908s-12.61 9.109-15.86 13.664c-3.09 4.392-4.64 8.947-4.64 13.664 0 5.531 1.79 10.004 5.37 13.42 3.58 3.416 8.14 5.124 13.67 5.124Zm-262.12-57.584v30.988c0 8.947.33 15.535.98 19.764.81 4.229 2.6 6.995 5.37 8.296 2.92 1.139 7.48 1.952 13.66 2.44V243h-64.9v-8.54c6.34-.488 10.98-1.301 13.9-2.44 2.93-1.301 4.8-3.904 5.62-7.808.97-4.067 1.46-10.167 1.46-18.3V174.68c0-9.272-.16-16.999-.49-23.18-.16-6.344-.57-10.573-1.22-12.688-.81-4.229-2.44-6.913-4.88-8.052-2.44-1.139-7.4-1.708-14.88-1.708v-8.54l39.77-9.272 3.17 24.4h1.22c7.32-8.296 14.97-14.396 22.94-18.3 8.13-4.067 17.08-6.1 26.84-6.1 10.25 0 18.87 2.115 25.86 6.344 7.16 4.229 12.04 10.167 14.64 17.812h.98c6.02-7.645 13.34-13.583 21.96-17.812 8.78-4.229 17.97-6.344 27.57-6.344 7.65 0 14.56 1.301 20.74 3.904 6.34 2.44 11.14 5.856 14.4 10.248 2.92 3.741 4.96 8.703 6.1 14.884 1.3 6.019 1.95 14.315 1.95 24.888v38.796c0 8.947.4 15.535 1.22 19.764.81 4.067 2.6 6.751 5.37 8.052 2.92 1.301 7.48 2.196 13.66 2.684V243h-64.9v-8.54c6.18-.325 10.73-1.139 13.66-2.44 2.93-1.301 4.8-3.904 5.61-7.808.98-4.067 1.47-10.167 1.47-18.3v-30.744c0-18.707-2.12-31.801-6.35-39.284-4.23-7.483-11.63-11.224-22.2-11.224-7 0-13.67 2.033-20.01 6.1-6.34 3.904-11.31 9.191-14.88 15.86-1.14 2.115-2.04 4.229-2.69 6.344-.49 2.115-.89 4.717-1.22 7.808-.16 2.928-.24 6.995-.24 12.2v30.988c0 8.947.4 15.535 1.22 19.764.81 4.067 2.6 6.751 5.37 8.052 2.92 1.301 7.56 2.196 13.9 2.684V243h-64.9v-8.54c6.18-.488 10.74-1.301 13.66-2.44 2.93-1.301 4.8-3.904 5.62-7.808.81-4.067 1.22-10.167 1.22-18.3v-30.744c0-12.688-.9-22.692-2.69-30.012s-4.72-12.525-8.78-15.616c-4.07-3.253-9.6-4.88-16.59-4.88-7.16 0-13.99 2.033-20.5 6.1-6.51 3.904-11.39 9.191-14.64 15.86a35.095 35.095 0 0 0-2.68 6.344c-.49 2.115-.9 4.717-1.22 7.808-.17 2.928-.25 6.995-.25 12.2Zm-104.41 3.66V152.72c0-8.947-.41-15.453-1.22-19.52-.65-4.067-2.44-6.751-5.37-8.052-2.76-1.301-7.32-2.277-13.66-2.928v-8.54h44.16v74.908c0 9.272.08 16.836.24 22.692.33 5.856.74 10.248 1.22 13.176.82 4.067 2.44 6.751 4.88 8.052 2.44 1.139 7.41 1.708 14.89 1.708v8.54l-40.26 2.928-2.69-29.28h-.97c-6.18 9.923-13.34 17.243-21.47 21.96-7.97 4.717-16.35 7.076-25.14 7.076-6.83 0-13.5-1.301-20-3.904-6.35-2.603-11.15-6.1-14.4-10.492-5.2-6.832-7.81-20.008-7.81-39.528V152.72c0-6.669-.24-11.956-.73-15.86-.32-3.904-1.14-6.832-2.44-8.784-1.3-1.952-3.33-3.253-6.1-3.904-2.6-.813-6.26-1.464-10.98-1.952v-8.54h44.16v66.612c0 17.568 2.12 30.419 6.35 38.552 4.23 7.971 10.82 11.956 19.76 11.956 14.32 0 25.46-9.353 33.43-28.06 1.63-3.741 2.68-7.239 3.17-10.492.65-3.416.98-8.621.98-15.616ZM972.45 234.46l-4.88 8.54h-5.368v-41.968h6.1c3.253 11.549 7.727 20.171 13.42 25.864 5.693 5.693 12.769 8.54 21.228 8.54 6.51 0 11.63-1.545 15.37-4.636 3.91-3.253 5.86-8.133 5.86-14.64 0-3.253-.73-5.937-2.2-8.052-1.3-2.277-3.98-4.799-8.05-7.564-4.07-2.928-10.09-6.832-18.056-11.712-7.32-4.717-13.42-8.947-18.3-12.688-4.88-3.741-8.54-7.727-10.98-11.956-2.44-4.229-3.66-9.353-3.66-15.372 0-7.483 1.627-13.989 4.88-19.52 3.253-5.693 7.564-10.085 12.932-13.176 5.531-3.253 11.712-4.88 18.544-4.88 4.39 0 8.95.732 13.66 2.196 4.72 1.301 8.87 3.091 12.45 5.368l4.88-5.124h4.63v35.136h-6.34c-3.58-9.923-7.48-16.999-11.71-21.228-4.23-4.229-9.44-6.344-15.62-6.344-5.529 0-10.002 1.464-13.418 4.392-3.253 2.928-4.88 6.995-4.88 12.2 0 5.368 1.871 9.76 5.612 13.176 3.904 3.416 10.004 7.727 18.296 12.932 9.44 5.856 17 10.98 22.7 15.372 5.69 4.229 9.84 8.621 12.44 13.176 2.6 4.392 3.9 9.679 3.9 15.86 0 11.387-3.82 20.415-11.46 27.084-7.49 6.669-17.25 10.004-29.28 10.004-6.348 0-12.285-.895-17.816-2.684-5.531-1.952-10.492-4.717-14.884-8.296Zm-93.679-105.408h-14.64v-9.028c8.621-5.205 15.372-10.248 20.252-15.128 4.88-5.043 8.621-11.061 11.224-18.056h7.076v30.744h32.696v11.468h-32.696v74.176c0 11.387 1.139 19.276 3.416 23.668 2.44 4.392 6.913 6.588 13.42 6.588 4.067 0 7.564-.813 10.492-2.44 2.928-1.789 5.693-4.717 8.296-8.784l6.1 4.636c-4.717 12.363-15.616 18.544-32.696 18.544-10.736 0-18.951-2.603-24.644-7.808-5.531-5.205-8.296-12.525-8.296-21.96v-86.62ZM827.602 245.44c-6.995 0-12.282-2.277-15.86-6.832-3.579-4.555-5.368-10.98-5.368-19.276h-1.22c-4.392 7.971-10.33 14.315-17.812 19.032-7.483 4.555-15.779 6.832-24.888 6.832-6.67 0-12.444-1.22-17.324-3.66-4.88-2.44-8.703-5.775-11.468-10.004-2.603-4.392-3.904-9.516-3.904-15.372 0-7.645 2.846-14.64 8.54-20.984 5.693-6.507 16.022-13.013 30.988-19.52l35.136-15.372V150.28c0-10.248-2.115-17.731-6.344-22.448-4.067-4.88-10.574-7.32-19.52-7.32-5.206 0-9.028 1.057-11.468 3.172-2.278 2.115-4.474 6.344-6.588 12.688-1.79 4.555-3.579 7.645-5.368 9.272-1.627 1.627-4.067 2.44-7.32 2.44-3.904 0-6.914-1.057-9.028-3.172-2.115-2.115-3.172-5.124-3.172-9.028 0-7.808 4.148-13.827 12.444-18.056 8.296-4.392 20.089-6.588 35.38-6.588 16.429 0 27.978 2.847 34.648 8.54 6.832 5.693 10.248 15.535 10.248 29.524v54.656c0 10.085.976 17.243 2.928 21.472 1.952 4.229 5.042 6.344 9.272 6.344 1.626 0 3.497-.325 5.612-.976 2.277-.813 3.985-2.277 5.124-4.392l3.416 5.856c-1.952 3.741-5.531 6.913-10.736 9.516-5.206 2.44-10.655 3.66-16.348 3.66Zm-54.168-14.884c5.856 0 11.142-1.789 15.86-5.368 4.717-3.741 8.377-8.703 10.98-14.884 2.765-6.181 4.148-12.932 4.148-20.252v-19.276c-12.363 4.717-22.204 9.353-29.524 13.908s-12.607 9.109-15.86 13.664c-3.091 4.392-4.636 8.947-4.636 13.664 0 5.531 1.789 10.004 5.368 13.42 3.578 3.416 8.133 5.124 13.664 5.124Zm-193.622 9.76-3.66-54.656h9.028c2.277 14.803 8.377 26.433 18.3 34.892 10.085 8.296 22.448 12.444 37.088 12.444 12.037 0 21.553-2.847 28.548-8.54 6.995-5.856 10.492-13.583 10.492-23.18 0-5.531-1.301-10.411-3.904-14.64-2.44-4.392-6.751-8.621-12.932-12.688s-14.803-8.459-25.864-13.176c-13.501-6.019-24.156-11.712-31.964-17.08-7.645-5.368-13.095-11.143-16.348-17.324-3.091-6.344-4.636-13.664-4.636-21.96 0-10.085 2.277-19.032 6.832-26.84 4.717-7.808 11.143-13.908 19.276-18.3 8.296-4.392 17.812-6.588 28.548-6.588 13.664 0 26.596 4.799 38.796 14.396l6.344-10.98h5.612l2.684 48.556h-9.028c-3.904-13.339-9.597-23.261-17.08-29.768-7.32-6.507-16.185-9.76-26.596-9.76-9.923 0-17.812 2.521-23.668 7.564-5.856 4.88-8.784 11.387-8.784 19.52 0 5.043 1.139 9.597 3.416 13.664 2.44 4.067 6.344 7.971 11.712 11.712 5.531 3.579 12.932 7.483 22.204 11.712 16.104 7.157 28.629 13.745 37.576 19.764 9.109 6.019 15.453 12.2 19.032 18.544 3.579 6.344 5.368 13.827 5.368 22.448 0 10.899-2.847 20.496-8.54 28.792-5.531 8.296-13.257 14.803-23.18 19.52-9.923 4.717-21.472 7.076-34.648 7.076-9.272 0-17.649-1.301-25.132-3.904-7.32-2.765-14.803-7.157-22.448-13.176l-6.832 11.956h-5.612Z" fill="#1C2818"/><path d="M345.281 304.797c-4.136 3.278-8.577 5.581-13.562 6.728-3.006.692-6.084 1.766-9.083 1.631-4.572-.205-9.24-.847-13.622-2.137-7.025-2.069-12.842-6.304-17.298-12.153-3.058-4.014-5.495-8.313-6.887-13.337-1.358-4.9-2.051-9.751-1.487-14.709.793-6.975 3.063-13.405 7.315-19.19 3.214-4.373 6.92-8.044 11.572-10.742 5.343-3.099 10.98-4.965 17.257-5.753 8.638-1.084 16.302 1.17 23.373 5.354 6.813 4.031 12.147 9.955 15.104 17.401 4.655 11.717 4.122 23.287-1.983 34.542-2.66 4.904-6.586 8.582-10.699 12.365Z" fill="#D4681E"/><path d="M304.359 519.142c1.053.355 2.105 1.015 3.16 1.019 17.425.064 34.851.088 52.276.006 3.186-.014 4.676 1.553 4.668 4.577-.018 6.905.026 13.812-.02 20.717-.019 2.775-1.033 3.624-4.052 3.628-26.98.034-53.96.065-80.939.093-3.965.004-4.665-.433-4.717-4.395-.135-10.277-.111-20.557-.017-30.835.046-4.928.566-9.852.575-14.779.057-29.953.134-59.906-.048-89.858-.043-7.176 2.439-12.807 7.482-17.722 8.824-8.599 17.517-17.333 26.183-26.091 10.997-11.114 21.902-22.32 32.866-33.466 10.06-10.227 20.152-20.423 30.221-30.641a51875.172 51875.172 0 0 0 30.35-30.829c8.034-8.166 16.188-16.22 24.027-24.57 2.881-3.068 5.083-6.794 7.428-10.331.555-.836.58-2.114.606-3.194.124-5.131.151-10.264.237-15.396.146-8.728.368-17.456.426-26.185.014-2.099-.491-4.201-.849-7.024-1.476.652-2.842.87-3.638 1.662-17.758 17.674-35.455 35.409-53.158 53.139-2.175 2.179-3.24 2.192-5.428.011-4.735-4.717-9.48-9.425-14.217-14.141-2.68-2.668-2.688-3.487-.053-6.116 20.755-20.706 41.494-41.429 62.287-62.096 2.955-2.937 4.148-7.509.887-11.518-4.847-5.961-10.223-11.286-16.663-15.495-1.577-1.031-3.171-2.056-4.844-2.916-4.403-2.264-6.139-1.967-9.702 1.58a17926.656 17926.656 0 0 0-30.244 30.177c-35.894 35.914-71.775 71.842-107.677 107.748-2.868 2.868-4.298 6.242-4.298 10.289.009 89.136.006 178.271.006 267.406 0 5.034-1.366 6.366-6.531 6.366-5.3.001-10.602-.105-15.899.035-3.97.104-7.53-2.233-7.518-7.487.127-54.926.053-109.853.125-164.779.006-4.622-1.634-8.225-4.828-11.415-54.611-54.549-109.198-109.122-163.792-163.688-5.327-5.325-10.648-10.656-16.013-15.942-.57-.562-1.42-.838-2.14-1.247-.3.787-.858 1.574-.861 2.362-.052 14.695-.122 29.391.027 44.085.032 3.245 1.522 6.12 3.938 8.516 13.099 12.991 26.117 26.063 39.196 39.074a62130.374 62130.374 0 0 0 65.71 65.282c5.432 5.388 11.059 10.584 16.418 16.043 8.738 8.902 17.372 17.906 25.958 26.954 3.137 3.304 6.359 6.657 7.781 11.137.751 2.366 1.444 4.882 1.449 7.332.112 46.574.11 93.148.164 139.723.002 2.181-.826 3.162-3.058 3.16-28.025-.025-56.051-.023-84.076-.005-2.22.002-3.291-1.146-3.305-3.208-.053-7.467-.131-14.938.034-22.402.065-2.908 1.437-3.354 3.54-3.342 17.666.099 35.333.057 52.999.055 3.832 0 3.984-.152 3.984-3.853 0-30.675-.03-61.351.037-92.026.009-3.946-1.572-5.582-5.397-5.169-3.018.326-6.089.192-9.137.212-19.258.129-38.517.413-57.775.312-15.813-.083-30.719-4.205-44.258-12.323-10.3-6.175-19.179-14.067-26.356-23.938-4.86-6.683-8.676-13.837-11.76-21.369-1.686-4.115-2.46-8.668-3.192-13.098C-1.233 323.654.326 298.124.121 272.67c-.086-10.662.234-21.327.337-31.991.13-13.398.22-26.796.339-40.194.07-8.002-.174-16.026.34-24 .569-8.811 1.644-17.604 5.394-25.817 1.832-4.014 2.986-8.382 5.161-12.181 2.733-4.773 6-9.279 9.387-13.629 6.9-8.863 15.581-15.817 24.918-21.915C51.575 99.3 57.459 96.124 63.2 92.73c5.882-3.476 11.733-7.004 17.64-10.436 7.818-4.542 15.696-8.981 23.513-13.524 6.975-4.054 13.875-8.24 20.86-12.276 7.384-4.268 14.843-8.407 22.244-12.645 5.383-3.08 10.707-6.264 16.092-9.341 7.561-4.322 15.148-8.597 22.735-12.873 8.164-4.601 16.279-9.294 24.533-13.727 4.834-2.596 9.729-5.284 14.909-6.973 4.739-1.545 9.878-1.163 14.563 1.058a244.573 244.573 0 0 1 12.536 6.367c5.001 2.735 9.888 5.679 14.844 8.499 4.603 2.62 9.252 5.16 13.844 7.798 5.296 3.044 10.531 6.196 15.833 9.228 3.485 1.994 7.075 3.804 10.562 5.794 6.083 3.472 12.1 7.062 18.189 10.525 7.888 4.488 15.831 8.88 23.728 13.353a1611.85 1611.85 0 0 1 18.036 10.359c7.165 4.183 14.26 8.486 21.444 12.636 7.194 4.156 14.541 8.05 21.666 12.318 5.125 3.069 9.993 6.568 14.983 9.866 7.566 5.002 13.864 11.385 19.36 18.5 4.066 5.263 7.76 10.848 10.05 17.19 1.922 5.326 4.22 10.569 5.548 16.043 1.326 5.465 2.248 11.164 2.323 16.773.438 32.814.601 65.631.803 98.447.102 16.619.299 33.243.06 49.859-.165 11.493-.977 22.997-4.354 34.096-1.936 6.363-4.727 12.393-8.674 17.795-3.577 4.895-6.925 10.036-11.052 14.432-5.17 5.507-11.152 10.209-18.132 14.036a2657.736 2657.736 0 0 0-12.702 6.596c-.174-.001-.347-.001-.771-.034-2.273.61-4.317 1.191-6.308 1.918-1.531.56-2.995 1.305-4.488 1.967a8.833 8.833 0 0 1-.772-.036c-1.196.31-2.14.654-3.085.997-.172-.001-.345-.001-.785-.036-1.523.31-2.778.655-4.033 1-.173-.002-.345-.003-.795-.038-1.847.31-3.418.654-4.989.998a35.022 35.022 0 0 1-1.722-.038c-3.566.143-6.799.3-10.028.517-.588.04-1.159.321-1.738.49-.857-.016-1.714-.032-2.888-.187-.87-.2-1.422-.309-1.976-.314-11.202-.107-22.405-.198-33.608-.305-.956-.009-1.912-.156-2.868-.152-6.071.019-12.143.063-18.214.099-1.143-.037-2.287-.074-3.771-.137-.916.359-1.492.746-2.068 1.132 0 0 .063.051-.165.057-.375.506-.652 1.005-.652 1.505-.02 31.658-.025 63.315.02 94.972.001.755.573 1.509.879 2.264Zm129.98-226.391v-12.447c-1.308.413-2.282.425-2.771.918-6.798 6.869-13.539 13.793-20.273 20.724-5.963 6.137-11.899 12.3-17.85 18.449-8.207 8.48-16.395 16.979-24.631 25.431-8.496 8.718-17.055 17.375-25.556 26.089-5.201 5.331-10.373 10.693-15.465 16.127-.45.48-.214 1.602-.25 2.821.309.199.617.569.928.57 6.279.038 12.558.053 18.837-.005.454-.004.902-.601 1.791-1.038 5.757-.207 11.517-.346 17.268-.638 6.22-.316 12.428-.901 18.65-1.133 5.691-.212 10.997-1.988 15.978-4.323 10.694-5.011 19.134-12.898 25.354-22.854 5.297-8.48 7.572-18.037 7.853-28.036.106-3.766.157-7.533.615-11.389.186-.324.532-.647.533-.971.032-8.821.042-17.642-.009-26.463-.003-.466-.581-.928-1.002-1.832ZM121.343 174.802c-16.476-16.471-32.962-32.931-49.408-49.432-1.317-1.321-2.624-2.14-4.4-1.177-2.355 1.277-4.738 2.537-6.953 4.034-6.427 4.344-11.818 9.809-16.904 15.641-3.794 4.35-2.771 9.337.726 12.82 52.997 52.789 105.878 105.696 158.76 158.601 4.263 4.264 8.334 8.721 12.494 13.088l1.093-.407c.26-1.111.743-2.221.746-3.333.049-15.899.061-31.798.014-47.697-.012-4.111-1.404-7.626-4.465-10.615-9.427-9.208-18.714-18.56-28.039-27.871a56147.26 56147.26 0 0 1-63.664-63.652Zm179.358-57.51c-.528.579-1.031 1.181-1.585 1.733-16.827 16.766-33.679 33.507-50.44 50.338-1.053 1.057-1.981 2.808-1.992 4.244-.138 16.776-.109 33.555-.033 50.332.004.92.609 2.342 1.299 2.618.765.307 1.985-.351 2.939-.752.532-.224.947-.756 1.377-1.186 31.99-32.002 63.975-64.01 95.966-96.012 5.821-5.823 11.673-11.616 17.501-17.433 1.612-1.609 1.776-3.571.269-4.447-6.341-3.686-12.734-7.282-19.087-10.948-3.554-2.05-7.118-4.09-10.582-6.285-3.955-2.507-5.049-2.64-7.49-.203-9.284 9.267-18.549 18.552-28.142 28.001Zm-137.961-1.211c-9.106-9.12-18.225-18.228-27.305-27.375-1.256-1.264-2.267-1.819-4.096-.745-10.171 5.966-20.448 11.752-30.643 17.677-3.676 2.135-3.657 2.541-.567 5.63 36.863 36.846 73.729 73.689 110.594 110.532 2.031 2.029 4.065 4.055 6.098 6.082l.761-.256c.255-1.214.734-2.431.714-3.64-.034-2.031-.495-4.052-.584-6.085-.366-8.372-.722-16.746-.962-25.122-.198-6.896-.143-13.8-.406-20.693-.052-1.366-.697-3.038-1.647-3.994-17.202-17.299-34.493-34.511-51.957-52.011ZM53.333 301.109c-3.392-3.265-6.803-6.51-10.168-9.803-3.288-3.217-6.486-6.528-9.825-9.69-.64-.605-1.751-.711-2.645-1.048-.258.755-.661 1.495-.741 2.268-.149 1.431-.164 2.884-.137 4.326.27 14.254.6 28.507.828 42.761.142 8.871 1.255 17.552 5.094 25.645 5.52 11.639 14.111 20.563 25.187 26.971 7.194 4.162 15.177 6.234 23.465 6.639a873.77 873.77 0 0 0 31.219.96c7.447.099 14.9-.206 22.349-.403.856-.023 1.699-.515 2.548-.789-.458-.766-.781-1.669-1.394-2.278-6.268-6.226-12.627-12.36-18.878-18.603a56991.787 56991.787 0 0 1-66.902-66.956ZM251.422 41.267c-.495-.238-.996-.464-1.485-.715-2.538-1.305-3.338-.822-3.339 2.106-.008 27.357-.015 54.714.038 82.071.002 1 .626 1.999 1.071 3.328 1.085-.926 1.716-1.396 2.267-1.946 17.403-17.368 34.8-34.742 52.193-52.12 1.669-1.668 1.459-2.672-.78-3.931-5.006-2.814-10.045-5.57-15.011-8.45-7.224-4.191-14.382-8.495-21.595-12.705-4.325-2.524-8.7-4.961-13.359-7.638Zm-43.05 77.793c2.06 2.006 4.076 4.061 6.212 5.982.525.473 1.532.823 2.146.644.441-.128.844-1.231.845-1.9.042-27.46.042-54.92.027-82.38-.001-2.38-.909-2.932-2.926-1.796a2441.408 2441.408 0 0 0-16.281 9.276 7192.39 7192.39 0 0 0-18.383 10.58c-5.456 3.15-10.869 6.374-16.369 9.445-2.522 1.408-2.855 2.657-.831 4.675 4.605 4.589 9.235 9.153 13.83 13.752 10.491 10.501 20.968 21.018 31.73 31.722Z" fill="#2E5428"/><path d="M304.384 518.919c-.331-.532-.903-1.286-.904-2.041-.045-31.657-.04-63.314-.02-94.972 0-.5.277-.999.622-1.532.231 1.006.293 2.046.293 3.086.015 31.746.024 63.491.009 95.459Zm5.776-99.378c6.027-.228 12.099-.271 18.17-.291.956-.003 1.912.144 2.868.153 11.203.106 22.406.198 33.608.304.554.006 1.106.115 1.793.303-.813.223-1.761.403-2.709.402-17.094-.018-34.188-.05-51.281-.118-.802-.003-1.603-.366-2.449-.753Zm99.212-6.97c3.943-2.223 8.075-4.378 12.376-6.568.052.246.012.684-.195.786-3.986 1.974-7.991 3.909-12.181 5.782Zm-11.55 3.853c1.288-.732 2.752-1.477 4.283-2.036 1.991-.728 4.035-1.309 6.185-1.876-1.747 1.031-3.566 2.13-5.516 2.891-1.496.584-3.158.742-4.952 1.021Zm-27.923 3.857c.35-.243.921-.523 1.509-.563a255.82 255.82 0 0 1 9.86-.473c-.362.411-.881 1.011-1.419 1.028-3.237.101-6.479.069-9.95.008Zm13.479-.968c1.351-.418 2.922-.762 4.647-1.027-1.015 2.021-2.885.826-4.647 1.027Zm5.778-.961c1.041-.418 2.296-.763 3.697-1.029-1.065.42-2.274.761-3.697 1.029Zm4.807-.966c.742-.414 1.686-.757 2.76-1.023-.766.416-1.662.755-2.76 1.023Zm-89.499 2.964c.389-.393.964-.779 1.671-1.088-.408.416-.946.756-1.671 1.088Zm130.162-98.289c-.213-9.445-.237-18.935-.218-28.648.352.241.93.704.933 1.17.051 8.821.041 17.642.009 26.463-.001.324-.347.647-.724 1.015Zm-107.107 68.605c6.884-.214 13.791-.23 20.919-.202-.228.364-.676.961-1.13.965-6.279.057-12.558.042-18.837.005-.311-.002-.619-.372-.952-.768Z" fill="#2E5428"/></svg>