<svg width="1080" height="1369" fill="none" xmlns="http://www.w3.org/2000/svg"><g clip-path="url(#satsuma-lockup-stacked-light__a)"><path d="m17.9 1114.32-3.66-54.66h9.028c2.277 14.8 8.377 26.43 18.3 34.89 10.085 8.3 22.448 12.45 37.088 12.45 12.037 0 21.553-2.85 28.548-8.54 6.995-5.86 10.492-13.59 10.492-23.18 0-5.53-1.301-10.41-3.904-14.64-2.44-4.4-6.751-8.63-12.932-12.69-6.181-4.07-14.803-8.46-25.864-13.18-13.501-6.02-24.156-11.71-31.964-17.08-7.645-5.37-13.095-11.14-16.348-17.32-3.09-6.346-4.636-13.666-4.636-21.962 0-10.085 2.277-19.032 6.832-26.84 4.717-7.808 11.143-13.908 19.276-18.3 8.296-4.392 17.812-6.588 28.548-6.588 13.664 0 26.596 4.799 38.796 14.396l6.344-10.98h5.612l2.684 48.556h-9.028c-3.904-13.339-9.597-23.261-17.08-29.768-7.32-6.507-16.185-9.76-26.596-9.76-9.923 0-17.812 2.521-23.668 7.564-5.856 4.88-8.784 11.387-8.784 19.52 0 5.043 1.139 9.597 3.416 13.664 2.44 4.067 6.344 7.971 11.712 11.712 5.53 3.579 12.932 7.483 22.204 11.716 16.104 7.15 28.629 13.74 37.576 19.76 9.109 6.02 15.453 12.2 19.032 18.54 3.579 6.35 5.368 13.83 5.368 22.45 0 10.9-2.847 20.5-8.54 28.79-5.531 8.3-13.257 14.81-23.18 19.52-9.923 4.72-21.472 7.08-34.648 7.08-9.272 0-17.65-1.3-25.132-3.9-7.32-2.77-14.803-7.16-22.448-13.18l-6.832 11.96H17.9Zm247.79 5.12c-6.995 0-12.282-2.28-15.86-6.83-3.579-4.56-5.368-10.98-5.368-19.28h-1.22c-4.392 7.97-10.33 14.32-17.812 19.03-7.483 4.56-15.779 6.84-24.888 6.84-6.67 0-12.444-1.22-17.324-3.66-4.88-2.44-8.703-5.78-11.468-10.01-2.603-4.39-3.904-9.51-3.904-15.37 0-7.65 2.846-14.64 8.54-20.98 5.693-6.51 16.022-13.02 30.988-19.52l35.136-15.38v-10c0-10.25-2.115-17.73-6.344-22.45-4.067-4.878-10.574-7.318-19.52-7.318-5.206 0-9.028 1.057-11.468 3.172-2.278 2.115-4.474 6.346-6.588 12.686-1.79 4.56-3.579 7.65-5.368 9.27-1.627 1.63-4.067 2.44-7.32 2.44-3.904 0-6.914-1.05-9.028-3.17-2.115-2.11-3.172-5.12-3.172-9.03 0-7.8 4.148-13.823 12.444-18.052 8.296-4.392 20.089-6.588 35.38-6.588 16.429 0 27.978 2.847 34.648 8.54 6.832 5.693 10.248 15.53 10.248 29.52v54.66c0 10.09.976 17.24 2.928 21.47s5.042 6.35 9.272 6.35c1.626 0 3.497-.33 5.612-.98 2.277-.81 3.985-2.28 5.124-4.39l3.416 5.85c-1.952 3.75-5.531 6.92-10.736 9.52-5.206 2.44-10.655 3.66-16.348 3.66Zm-54.168-14.88c5.856 0 11.142-1.79 15.86-5.37 4.717-3.74 8.377-8.7 10.98-14.89 2.765-6.18 4.148-12.93 4.148-20.25v-19.27c-12.363 4.71-22.204 9.35-29.524 13.9-7.32 4.56-12.607 9.11-15.86 13.67-3.091 4.39-4.636 8.94-4.636 13.66 0 5.53 1.789 10.01 5.368 13.42 3.578 3.42 8.133 5.13 13.664 5.13Zm105.337-101.51h-14.64v-9.026c8.621-5.205 15.372-10.248 20.252-15.128 4.88-5.043 8.621-11.061 11.224-18.056h7.076v30.744h32.696v11.466h-32.696v74.18c0 11.38 1.139 19.27 3.416 23.67 2.44 4.39 6.913 6.58 13.42 6.58 4.067 0 7.564-.81 10.492-2.44 2.928-1.79 5.693-4.71 8.296-8.78l6.1 4.64c-4.717 12.36-15.616 18.54-32.696 18.54-10.736 0-18.951-2.6-24.644-7.81-5.531-5.2-8.296-12.52-8.296-21.96v-86.62Zm93.679 105.41-4.88 8.54h-5.368v-41.97h6.1c3.253 11.55 7.726 20.17 13.42 25.87 5.693 5.69 12.769 8.54 21.228 8.54 6.506 0 11.63-1.55 15.372-4.64 3.904-3.25 5.856-8.13 5.856-14.64 0-3.25-.732-5.94-2.196-8.05-1.301-2.28-3.985-4.8-8.052-7.57-4.067-2.92-10.086-6.83-18.056-11.71-7.32-4.72-13.42-8.94-18.3-12.69-4.88-3.74-8.54-7.72-10.98-11.95-2.44-4.23-3.66-9.36-3.66-15.37 0-7.49 1.626-13.99 4.88-19.52 3.253-5.697 7.564-10.089 12.932-13.18 5.53-3.253 11.712-4.88 18.544-4.88 4.392 0 8.946.732 13.664 2.196 4.717 1.301 8.865 3.091 12.444 5.368l4.88-5.124h4.636v35.14h-6.344c-3.579-9.93-7.483-17-11.712-21.23-4.229-4.231-9.435-6.346-15.616-6.346-5.531 0-10.004 1.464-13.42 4.392-3.254 2.924-4.88 6.994-4.88 12.204 0 5.36 1.87 9.76 5.612 13.17 3.904 3.42 10.004 7.73 18.3 12.93 9.434 5.86 16.998 10.98 22.692 15.38 5.693 4.23 9.841 8.62 12.444 13.17 2.602 4.39 3.904 9.68 3.904 15.86 0 11.39-3.823 20.42-11.468 27.09-7.483 6.67-17.243 10-29.28 10-6.344 0-12.282-.89-17.812-2.68-5.531-1.96-10.492-4.72-14.884-8.3Zm197.909-57.83v-23.91c0-8.95-.407-15.45-1.22-19.52-.651-4.07-2.44-6.75-5.368-8.052-2.766-1.301-7.32-2.277-13.664-2.928v-8.54h44.164v74.91c0 9.27.081 16.83.244 22.69.325 5.86.732 10.25 1.22 13.18.813 4.06 2.44 6.75 4.88 8.05 2.44 1.14 7.401 1.71 14.884 1.71v8.54l-40.26 2.92-2.684-29.28h-.976c-6.182 9.93-13.339 17.25-21.472 21.96-7.971 4.72-16.348 7.08-25.132 7.08-6.832 0-13.502-1.3-20.008-3.9-6.344-2.61-11.143-6.1-14.396-10.5-5.206-6.83-7.808-20-7.808-39.52v-38.8c0-6.67-.244-11.96-.732-15.86-.326-3.9-1.139-6.83-2.44-8.78-1.302-1.96-3.335-3.257-6.1-3.908-2.603-.813-6.263-1.464-10.98-1.952v-8.54h44.164v66.61c0 17.57 2.114 30.42 6.344 38.55 4.229 7.97 10.817 11.96 19.764 11.96 14.314 0 25.457-9.35 33.428-28.06 1.626-3.74 2.684-7.24 3.172-10.49.65-3.42.976-8.62.976-15.62Zm104.413-3.66v30.99c0 8.95.325 15.53.976 19.76.813 4.23 2.602 7 5.368 8.3 2.928 1.14 7.482 1.95 13.664 2.44v8.54h-64.904v-8.54c6.344-.49 10.98-1.3 13.908-2.44 2.928-1.3 4.798-3.9 5.612-7.81.976-4.06 1.464-10.16 1.464-18.3v-31.23c0-9.27-.163-17-.488-23.18-.163-6.34-.57-10.57-1.22-12.69-.814-4.23-2.44-6.91-4.88-8.05-2.44-1.14-7.402-1.71-14.884-1.71v-8.538l39.772-9.272 3.172 24.4h1.22c7.32-8.3 14.965-14.396 22.936-18.3 8.133-4.067 17.08-6.1 26.84-6.1 10.248 0 18.869 2.115 25.864 6.344 7.157 4.229 12.037 10.166 14.64 17.816h.976c6.018-7.65 13.338-13.587 21.96-17.816 8.784-4.229 17.974-6.344 27.572-6.344 7.645 0 14.558 1.301 20.74 3.904 6.344 2.44 11.142 5.856 14.396 10.248 2.928 3.738 4.961 8.698 6.1 14.888 1.301 6.01 1.952 14.31 1.952 24.88v38.8c0 8.95.406 15.53 1.22 19.76.813 4.07 2.602 6.75 5.368 8.06 2.928 1.3 7.482 2.19 13.664 2.68v8.54h-64.904v-8.54c6.181-.33 10.736-1.14 13.664-2.44 2.928-1.3 4.798-3.9 5.612-7.81.976-4.06 1.464-10.16 1.464-18.3v-30.74c0-18.71-2.115-31.8-6.344-39.29-4.23-7.48-11.631-11.22-22.204-11.22-6.995 0-13.664 2.03-20.008 6.1-6.344 3.9-11.306 9.19-14.884 15.86a35.156 35.156 0 0 0-2.684 6.34c-.488 2.12-.895 4.72-1.22 7.81-.163 2.93-.244 7-.244 12.2v30.99c0 8.95.406 15.53 1.22 19.76.813 4.07 2.602 6.75 5.368 8.06 2.928 1.3 7.564 2.19 13.908 2.68v8.54h-64.904v-8.54c6.181-.49 10.736-1.3 13.664-2.44 2.928-1.3 4.798-3.9 5.612-7.81.813-4.06 1.22-10.16 1.22-18.3v-30.74c0-12.69-.895-22.69-2.684-30.01-1.79-7.32-4.718-12.53-8.784-15.62-4.067-3.25-9.598-4.88-16.592-4.88-7.158 0-13.99 2.03-20.496 6.1-6.507 3.9-11.387 9.19-14.64 15.86a35.156 35.156 0 0 0-2.684 6.34c-.488 2.12-.895 4.72-1.22 7.81-.163 2.93-.244 7-.244 12.2Zm316.28 72.47c-6.99 0-12.28-2.28-15.86-6.83-3.58-4.56-5.37-10.98-5.37-19.28h-1.22c-4.39 7.97-10.325 14.32-17.807 19.03-7.483 4.56-15.779 6.84-24.888 6.84-6.67 0-12.444-1.22-17.324-3.66-4.88-2.44-8.703-5.78-11.468-10.01-2.603-4.39-3.904-9.51-3.904-15.37 0-7.65 2.846-14.64 8.54-20.98 5.693-6.51 16.022-13.02 30.988-19.52l35.133-15.38v-10c0-10.25-2.11-17.73-6.341-22.45-4.067-4.878-10.574-7.318-19.52-7.318-5.206 0-9.028 1.057-11.468 3.172-2.278 2.115-4.474 6.346-6.588 12.686-1.79 4.56-3.579 7.65-5.368 9.27-1.627 1.63-4.067 2.44-7.32 2.44-3.904 0-6.914-1.05-9.028-3.17-2.115-2.11-3.172-5.12-3.172-9.03 0-7.8 4.148-13.823 12.444-18.052 8.296-4.392 20.089-6.588 35.38-6.588 16.431 0 27.981 2.847 34.651 8.54 6.83 5.693 10.24 15.53 10.24 29.52v54.66c0 10.09.98 17.24 2.93 21.47 1.95 4.23 5.05 6.35 9.27 6.35 1.63 0 3.5-.33 5.62-.98 2.27-.81 3.98-2.28 5.12-4.39l3.42 5.85c-1.96 3.75-5.53 6.92-10.74 9.52-5.2 2.44-10.65 3.66-16.35 3.66Zm-54.165-14.88c5.856 0 11.142-1.79 15.86-5.37 4.717-3.74 8.377-8.7 10.975-14.89 2.77-6.18 4.15-12.93 4.15-20.25v-19.27c-12.36 4.71-22.201 9.35-29.521 13.9-7.32 4.56-12.607 9.11-15.86 13.67-3.091 4.39-4.636 8.94-4.636 13.66 0 5.53 1.789 10.01 5.368 13.42 3.578 3.42 8.133 5.13 13.664 5.13ZM38.547 1213.87l43.432 109.8 42.944-105.9c1.627-4.06 2.928-7.48 3.904-10.25.976-2.76 1.627-5.2 1.952-7.32.488-2.11.732-4.06.732-5.85 0-4.39-1.382-7.48-4.148-9.27-2.765-1.79-7.726-2.69-14.884-2.69v-9.27h59.292v9.27c-7.482.82-13.094 2.6-16.836 5.37-3.741 2.77-6.994 7.56-9.76 14.4l-66.124 161.28h-8.54L7.56 1211.43c-2.765-6.67-5.53-12.04-8.296-16.11-2.765-4.06-6.018-7.07-9.76-9.02-3.74-2.12-8.458-3.34-14.152-3.66v-9.52h79.544v9.52c-8.946 0-14.884.89-17.812 2.68-2.928 1.63-4.392 4.15-4.392 7.56 0 2.28.407 4.97 1.22 8.06.976 2.92 2.522 7.23 4.636 12.93Zm230.628 117.61 7.564 6.83c-13.827 16.75-30.988 25.13-51.484 25.13-12.688 0-23.831-2.77-33.428-8.3-9.597-5.53-17.08-13.17-22.448-22.93-5.368-9.92-8.052-21.39-8.052-34.41 0-13.33 2.847-25.13 8.54-35.38 5.693-10.41 13.501-18.54 23.424-24.4 10.085-5.85 21.716-8.78 34.892-8.78 15.616 0 27.735 4.31 36.356 12.93 8.784 8.46 13.176 20.66 13.176 36.6 0 2.12-.488 3.5-1.464 4.15-.813.49-2.847.73-6.1.73h-80.276c-.325 1.3-.569 2.93-.732 4.88-.163 1.79-.244 3.82-.244 6.1 0 11.23 1.789 21.07 5.368 29.53 3.579 8.45 8.621 15.04 15.128 19.76 6.507 4.55 14.071 6.83 22.692 6.83 6.669 0 13.013-1.54 19.032-4.63s12.037-7.97 18.056-14.64Zm-77.592-59.05h44.896c6.669 0 10.736-.41 12.2-1.22 1.627-.82 2.44-2.69 2.44-5.61 0-7.49-2.44-13.42-7.32-17.82-4.88-4.55-11.387-6.83-19.52-6.83-8.621 0-15.697 2.69-21.228 8.05-5.531 5.21-9.353 13.02-11.468 23.43ZM341.946 1290v32.69c0 8.79.326 15.21.976 19.28.814 4.06 2.684 6.75 5.612 8.05 2.928 1.3 7.483 2.2 13.664 2.68v8.3H298.27v-8.3c6.019-.48 10.492-1.3 13.42-2.44 2.928-1.3 4.799-3.9 5.612-7.8.976-3.91 1.464-9.93 1.464-18.06v-32.45c0-9.6-.162-17.33-.488-23.18-.162-6.02-.488-10.09-.976-12.2-.976-4.39-2.684-7.16-5.124-8.3-2.44-1.3-7.238-1.95-14.396-1.95v-7.81l39.04-9.27 2.928 24.16h.976c6.182-7.65 13.42-13.59 21.716-17.82 8.459-4.23 17.487-6.34 27.084-6.34 7.483 0 14.315 1.22 20.496 3.66 6.182 2.44 10.899 5.77 14.152 10 2.766 3.75 4.718 8.63 5.856 14.64 1.139 5.86 1.708 13.99 1.708 24.4v40.75c0 8.79.407 15.21 1.22 19.28.814 4.06 2.603 6.75 5.368 8.05 2.928 1.3 7.32 2.2 13.176 2.68v8.3h-63.196v-8.3c6.182-.32 10.655-1.13 13.42-2.44 2.928-1.3 4.799-3.9 5.612-7.8.814-4.07 1.22-10.09 1.22-18.06v-32.21c0-18.38-2.114-31.23-6.344-38.55-4.229-7.48-11.386-11.22-21.472-11.22-7.157 0-13.826 1.95-20.008 5.85-6.181 3.74-10.98 8.95-14.396 15.62a35.3 35.3 0 0 0-2.684 6.34c-.65 1.95-1.138 4.48-1.464 7.57-.162 2.92-.244 6.99-.244 12.2Zm139.923-42.95h-14.64v-9.03c8.621-5.2 15.372-10.24 20.252-15.12 4.88-5.05 8.621-11.07 11.224-18.06h7.076v30.74h32.696v11.47h-32.696v74.18c0 11.38 1.138 19.27 3.416 23.67 2.44 4.39 6.913 6.58 13.42 6.58 4.066 0 7.564-.81 10.492-2.44 2.928-1.79 5.693-4.71 8.296-8.78l6.1 4.64c-4.718 12.36-15.616 18.54-32.696 18.54-10.736 0-18.951-2.6-24.644-7.81-5.531-5.2-8.296-12.52-8.296-21.96v-86.62Zm180.787 47.58v-23.91c0-8.95-.407-15.45-1.22-19.52-.651-4.07-2.44-6.75-5.368-8.05-2.766-1.3-7.32-2.28-13.664-2.93v-8.54h44.164v74.91c0 9.27.081 16.83.244 22.69.325 5.86.732 10.25 1.22 13.18.813 4.06 2.44 6.75 4.88 8.05 2.44 1.14 7.401 1.71 14.884 1.71v8.54l-40.26 2.92-2.684-29.28h-.976c-6.182 9.93-13.339 17.25-21.472 21.96-7.971 4.72-16.348 7.08-25.132 7.08-6.832 0-13.502-1.3-20.008-3.9-6.344-2.61-11.143-6.1-14.396-10.5-5.206-6.83-7.808-20-7.808-39.52v-38.8c0-6.67-.244-11.96-.732-15.86-.326-3.9-1.139-6.83-2.44-8.78-1.302-1.96-3.335-3.26-6.1-3.91-2.603-.81-6.263-1.46-10.98-1.95v-8.54h44.164v66.61c0 17.57 2.114 30.42 6.344 38.55 4.229 7.97 10.817 11.96 19.764 11.96 14.314 0 25.457-9.35 33.428-28.06 1.626-3.74 2.684-7.24 3.172-10.49.65-3.42.976-8.62.976-15.62Zm104.657 19.28v8.29c0 8.95.325 15.54.976 19.77.813 4.06 2.602 6.75 5.368 8.05 2.928 1.14 7.482 1.95 13.664 2.44v8.54h-64.904v-8.54c6.344-.33 10.98-1.14 13.908-2.44 2.928-1.3 4.798-3.9 5.612-7.81.976-4.06 1.464-10.16 1.464-18.3v-28.55c0-11.06-.163-19.68-.488-25.86-.326-6.34-1.139-10.9-2.44-13.66-1.302-2.77-3.416-4.48-6.344-5.13-2.928-.65-6.995-.97-12.2-.97v-8.54l42.7-9.28 3.416 30.26h.976c4.392-9.76 10.492-17.65 18.3-23.67 7.808-6.18 15.86-9.27 24.156-9.27 5.205 0 9.272 1.3 12.2 3.9 3.09 2.44 4.636 5.78 4.636 10.01 0 3.9-1.22 6.99-3.66 9.27-2.44 2.11-5.938 3.17-10.492 3.17-3.416 0-6.182-.49-8.296-1.46-2.115-1.14-3.986-2.2-5.612-3.17-1.627-.98-3.416-1.47-5.368-1.47-4.392 0-8.784 2.85-13.176 8.54-4.392 5.53-7.808 12.61-10.248 21.23-1.302 4.55-2.359 9.84-3.172 15.86-.651 6.02-.976 12.28-.976 18.79Zm179.296 17.57 7.564 6.83c-13.827 16.75-30.988 25.13-51.484 25.13-12.688 0-23.831-2.77-33.428-8.3-9.598-5.53-17.08-13.17-22.448-22.93-5.368-9.92-8.052-21.39-8.052-34.41 0-13.33 2.846-25.13 8.54-35.38 5.693-10.41 13.501-18.54 23.424-24.4 10.085-5.85 21.716-8.78 34.892-8.78 15.616 0 27.734 4.31 36.356 12.93 8.784 8.46 13.176 20.66 13.176 36.6 0 2.12-.488 3.5-1.464 4.15-.814.49-2.847.73-6.1.73h-80.276c-.326 1.3-.57 2.93-.732 4.88-.163 1.79-.244 3.82-.244 6.1 0 11.23 1.789 21.07 5.368 29.53 3.578 8.45 8.621 15.04 15.128 19.76 6.506 4.55 14.07 6.83 22.692 6.83 6.669 0 13.013-1.54 19.032-4.63 6.018-3.09 12.037-7.97 18.056-14.64Zm-77.592-59.05h44.896c6.669 0 10.736-.41 12.2-1.22 1.626-.82 2.44-2.69 2.44-5.61 0-7.49-2.44-13.42-7.32-17.82-4.88-4.55-11.387-6.83-19.52-6.83-8.622 0-15.698 2.69-21.228 8.05-5.531 5.21-9.354 13.02-11.468 23.43Zm123.523 80.03-4.88 8.54h-5.368v-41.97h6.1c3.253 11.55 7.726 20.17 13.418 25.87 5.7 5.69 12.77 8.54 21.23 8.54 6.51 0 11.63-1.55 15.37-4.64 3.91-3.25 5.86-8.13 5.86-14.64 0-3.25-.73-5.94-2.2-8.05-1.3-2.28-3.98-4.8-8.05-7.57-4.07-2.92-10.09-6.83-18.06-11.71-7.32-4.72-13.42-8.94-18.296-12.69-4.88-3.74-8.54-7.72-10.98-11.95-2.44-4.23-3.66-9.36-3.66-15.37 0-7.49 1.626-13.99 4.88-19.52 3.253-5.7 7.564-10.09 12.936-13.18 5.53-3.25 11.71-4.88 18.54-4.88 4.39 0 8.95.73 13.66 2.2 4.72 1.3 8.87 3.09 12.45 5.36l4.88-5.12h4.63v35.14h-6.34c-3.58-9.93-7.48-17-11.71-21.23s-9.44-6.35-15.62-6.35c-5.53 0-10 1.47-13.42 4.4-3.25 2.92-4.88 6.99-4.88 12.2 0 5.36 1.87 9.76 5.61 13.17 3.91 3.42 10.01 7.73 18.3 12.93 9.44 5.86 17 10.98 22.7 15.38 5.69 4.23 9.84 8.62 12.44 13.17 2.6 4.39 3.9 9.68 3.9 15.86 0 11.39-3.82 20.42-11.46 27.09-7.49 6.67-17.25 10-29.28 10-6.35 0-12.29-.89-17.82-2.68-5.53-1.96-10.488-4.72-14.88-8.3Z" fill="#EEF2E8"/><path d="M709.449 487.676c-6.617 5.244-13.723 8.928-21.698 10.764-4.81 1.108-9.735 2.826-14.533 2.61-7.316-.329-14.785-1.356-21.796-3.42-11.24-3.309-20.546-10.085-27.677-19.445-4.892-6.421-8.792-13.301-11.019-21.339-2.173-7.839-3.281-15.602-2.379-23.534 1.268-11.16 4.901-21.448 11.704-30.704 5.143-6.997 11.073-12.87 18.516-17.188 8.548-4.958 17.568-7.943 27.61-9.204 13.821-1.735 26.084 1.872 37.398 8.566 10.9 6.451 19.434 15.928 24.167 27.841 7.448 18.748 6.594 37.26-3.173 55.268-4.256 7.846-10.538 13.731-17.12 19.785Z" fill="#D4681E"/><path d="M643.975 830.627c1.685.568 3.368 1.624 5.055 1.63 27.881.103 55.762.141 83.642.011 5.097-.024 7.482 2.484 7.469 7.322-.029 11.049.041 22.099-.033 33.148-.03 4.44-1.652 5.798-6.482 5.804-43.168.055-86.336.104-129.504.149-6.343.007-7.463-.693-7.546-7.032-.216-16.443-.177-32.892-.026-49.336.072-7.884.905-15.764.92-23.646.09-47.924.213-95.85-.078-143.772-.069-11.483 3.903-20.493 11.972-28.357 14.117-13.758 28.026-27.732 41.891-41.745 17.596-17.783 35.044-35.711 52.587-53.545 16.096-16.363 32.242-32.678 48.353-49.026a80620.244 80620.244 0 0 0 48.56-49.326c12.855-13.066 25.901-25.952 38.444-39.312 4.609-4.909 8.132-10.871 11.885-16.529.887-1.338.927-3.383.969-5.112.198-8.209.241-16.422.379-24.633.234-13.966.589-27.93.682-41.896.022-3.358-.786-6.721-1.359-11.238-2.362 1.042-4.548 1.392-5.82 2.659-28.413 28.278-56.729 56.654-85.053 85.022-3.48 3.486-5.184 3.507-8.685.019-7.576-7.549-15.168-15.082-22.747-22.626-4.289-4.269-4.301-5.58-.085-9.786 33.208-33.13 66.39-66.286 99.66-99.354 4.727-4.699 6.636-12.014 1.419-18.429-7.756-9.537-16.357-18.057-26.661-24.792-2.523-1.649-5.074-3.29-7.75-4.666-7.045-3.622-9.824-3.147-15.524 2.529a28241.03 28241.03 0 0 0-48.391 48.282c-57.43 57.463-114.839 114.948-172.283 172.398-4.588 4.588-6.877 9.986-6.877 16.462.014 142.617.011 285.233.011 427.85 0 8.053-2.186 10.184-10.45 10.185-8.48.001-16.964-.168-25.438.056-6.354.167-12.048-3.573-12.029-11.978.202-87.882.084-175.765.199-263.648.009-7.395-2.615-13.16-7.724-18.264-87.379-87.277-174.718-174.594-262.067-261.9-8.524-8.52-17.037-17.05-25.622-25.508-.911-.898-2.272-1.341-3.424-1.995-.48 1.26-1.373 2.519-1.378 3.78-.083 23.512-.195 47.026.043 70.536.053 5.192 2.436 9.792 6.302 13.626 20.958 20.786 41.788 41.7 62.713 62.518a98603.536 98603.536 0 0 0 105.136 104.45c8.692 8.622 17.695 16.935 26.269 25.67 13.98 14.242 27.795 28.649 41.533 43.125 5.018 5.288 10.175 10.653 12.449 17.82 1.202 3.785 2.31 7.811 2.32 11.731.178 74.519.175 149.038.261 223.557.004 3.49-1.322 5.06-4.893 5.057-44.84-.042-89.681-.037-134.521-.009-3.552.003-5.265-1.834-5.288-5.132-.085-11.948-.21-23.902.054-35.845.104-4.652 2.299-5.365 5.664-5.347 28.266.16 56.533.093 84.799.089 6.132 0 6.374-.242 6.374-6.165 0-49.08-.048-98.161.059-147.241.014-6.314-2.515-8.932-8.634-8.271-4.829.522-9.743.307-14.619.34-30.814.207-61.629.66-92.44.499-25.301-.132-49.151-6.729-70.813-19.717-16.48-9.881-30.687-22.507-42.171-38.301-7.775-10.693-13.882-22.139-18.816-34.191-2.696-6.584-3.936-13.868-5.106-20.957-6.685-40.478-4.19-81.325-4.518-122.051-.137-17.06.375-34.124.54-51.187.207-21.436.351-42.874.542-64.31.114-12.803-.279-25.641.544-38.399.91-14.099 2.631-28.168 8.63-41.309 2.932-6.421 4.778-13.411 8.258-19.489 4.372-7.636 9.602-14.846 15.019-21.805 11.04-14.182 24.93-25.308 39.869-35.065 8.926-5.829 18.339-10.91 27.526-16.34 9.41-5.563 18.772-11.208 28.223-16.699 12.509-7.267 25.113-14.369 37.621-21.639 11.161-6.486 22.2-13.182 33.376-19.641 11.815-6.829 23.748-13.451 35.591-20.231 8.612-4.93 17.13-10.023 25.746-14.947 12.098-6.914 24.238-13.754 36.377-20.596 13.062-7.362 26.046-14.87 39.252-21.963 7.735-4.154 15.567-8.455 23.854-11.157 7.582-2.472 15.805-1.861 23.301 1.693 6.774 3.212 13.481 6.59 20.058 10.187 8.002 4.376 15.821 9.086 23.75 13.598 7.366 4.191 14.804 8.255 22.151 12.478 8.474 4.87 16.849 9.913 25.332 14.765 5.577 3.189 11.32 6.086 16.899 9.27 9.734 5.555 19.361 11.298 29.103 16.84 12.621 7.18 25.331 14.206 37.965 21.364a2559.01 2559.01 0 0 1 28.857 16.574c11.464 6.693 22.817 13.578 34.311 20.218 11.51 6.649 23.265 12.881 34.665 19.708 8.201 4.912 15.99 10.51 23.973 15.787 12.106 8.003 22.183 18.216 30.977 29.6 6.505 8.421 12.415 17.356 16.079 27.504 3.076 8.522 6.752 16.91 8.877 25.669 2.122 8.743 3.597 17.861 3.717 26.837.7 52.501.962 105.008 1.285 157.514.164 26.592.479 53.189.096 79.774-.264 18.39-1.563 36.796-6.967 54.555-3.098 10.181-7.564 19.829-13.878 28.471-5.723 7.833-11.079 16.059-17.683 23.092-8.272 8.811-17.843 16.333-29.012 22.458a4286.247 4286.247 0 0 0-20.323 10.552c-.277 0-.555 0-1.233-.054-3.636.977-6.907 1.906-10.093 3.07-2.45.895-4.792 2.087-7.182 3.147-.276-.002-.553-.004-1.233-.058-1.915.497-3.426 1.046-4.937 1.595a13.994 13.994 0 0 1-1.256-.058c-2.437.496-4.445 1.048-6.452 1.6a15.395 15.395 0 0 1-1.273-.061c-2.955.497-5.469 1.047-7.982 1.597a53.711 53.711 0 0 1-2.756-.061c-5.705.229-10.878.481-16.044.829-.94.063-1.855.512-2.782.782-1.371-.025-2.742-.051-4.62-.299-1.392-.319-2.276-.494-3.161-.502-17.924-.171-35.849-.317-53.773-.487-1.53-.015-3.059-.25-4.589-.245-9.714.032-19.428.102-29.143.159-1.829-.059-3.658-.117-6.033-.219-1.466.575-2.387 1.193-3.309 1.811 0 0 .1.082-.264.091-.6.81-1.042 1.609-1.043 2.409-.033 50.652-.04 101.303.032 151.955.002 1.208.917 2.415 1.407 3.622Zm207.967-362.226v-19.915c-2.093.661-3.652.681-4.433 1.47-10.876 10.989-21.663 22.069-32.438 33.158-9.54 9.819-19.038 19.68-28.559 29.518-13.131 13.568-26.233 27.166-39.41 40.689-13.594 13.95-27.288 27.801-40.89 41.743-8.321 8.53-16.596 17.109-24.743 25.804-.72.768-.343 2.563-.4 4.513.495.317.987.91 1.484.913 10.046.059 20.094.084 30.14-.009.725-.006 1.442-.961 2.866-1.661 9.21-.331 18.426-.553 27.629-1.02 9.952-.506 19.884-1.442 29.839-1.814 9.105-.339 17.595-3.18 25.566-6.916 17.11-8.019 30.613-20.637 40.565-36.567 8.475-13.567 12.116-28.86 12.565-44.858.169-6.025.252-12.053.984-18.222.297-.518.852-1.035.854-1.554.05-14.113.067-28.227-.016-42.339-.004-.746-.93-1.487-1.603-2.933ZM351.15 279.683c-26.362-26.353-52.741-52.689-79.054-79.09-2.108-2.115-4.199-3.426-7.039-1.885-3.769 2.044-7.581 4.06-11.126 6.456-10.283 6.95-18.908 15.694-27.047 25.026-6.07 6.959-4.433 14.938 1.162 20.511 84.795 84.463 169.405 169.113 254.016 253.761 6.82 6.823 13.334 13.954 19.991 20.942l1.749-.652c.415-1.777 1.188-3.554 1.193-5.333.079-25.438.099-50.877.023-76.315-.019-6.578-2.247-12.201-7.145-16.985-15.083-14.731-29.942-29.694-44.862-44.592A89677.25 89677.25 0 0 1 351.15 279.683Zm286.971-92.016c-.844.926-1.65 1.889-2.536 2.773-26.922 26.826-53.886 53.612-80.704 80.542-1.684 1.69-3.169 4.492-3.187 6.789-.22 26.843-.174 53.688-.053 80.531.007 1.472.974 3.747 2.079 4.19 1.224.491 3.176-.563 4.702-1.204.851-.358 1.515-1.209 2.204-1.898 51.184-51.203 102.359-102.416 153.545-153.618 9.314-9.317 18.676-18.587 28.002-27.893 2.58-2.574 2.841-5.714.431-7.116-10.146-5.897-20.376-11.652-30.541-17.517-5.685-3.281-11.388-6.543-16.93-10.056-6.328-4.011-8.079-4.223-11.984-.324-14.854 14.827-29.679 29.682-45.028 44.801Zm-220.736-1.938c-14.571-14.592-29.161-29.165-43.69-43.799-2.009-2.023-3.626-2.91-6.553-1.193-16.273 9.547-32.716 18.804-49.029 28.283-5.88 3.417-5.851 4.067-.907 9.009 58.981 58.953 117.966 117.902 176.951 176.851 3.249 3.247 6.504 6.488 9.756 9.731l1.219-.41c.407-1.942 1.174-3.889 1.142-5.824-.054-3.249-.792-6.482-.934-9.735-.587-13.396-1.155-26.793-1.54-40.196-.317-11.033-.229-22.08-.65-33.108-.083-2.186-1.115-4.861-2.635-6.39-27.523-27.68-55.189-55.218-83.13-83.219ZM242.332 481.775c-5.426-5.225-10.884-10.417-16.268-15.686-5.26-5.147-10.377-10.444-15.72-15.503-1.023-.969-2.802-1.138-4.232-1.677-.412 1.208-1.058 2.391-1.186 3.628-.237 2.291-.262 4.615-.218 6.922.431 22.806.959 45.611 1.324 68.418.227 14.194 2.008 28.083 8.15 41.032 8.833 18.623 22.579 32.9 40.3 43.153 11.51 6.66 24.282 9.974 37.543 10.623 16.636.815 33.295 1.316 49.95 1.536 11.916.158 23.841-.329 35.759-.645 1.369-.037 2.719-.824 4.077-1.263-.732-1.226-1.249-2.669-2.23-3.644-10.029-9.961-20.203-19.777-30.205-29.765-35.587-35.542-71.124-71.136-107.044-107.129ZM559.276 66.027c-.793-.38-1.595-.743-2.377-1.144-4.061-2.087-5.34-1.315-5.342 3.37-.012 43.771-.024 87.542.061 131.313.003 1.6 1.002 3.199 1.713 5.325 1.736-1.482 2.746-2.233 3.628-3.113 27.845-27.789 55.679-55.588 83.508-83.393 2.67-2.668 2.335-4.275-1.248-6.289-8.009-4.502-16.072-8.911-24.018-13.52-11.558-6.706-23.011-13.592-34.552-20.328-6.919-4.039-13.919-7.938-21.373-12.22Zm-68.881 124.469c3.296 3.209 6.522 6.497 9.94 9.572.84.755 2.45 1.316 3.434 1.029.704-.205 1.35-1.969 1.352-3.039.067-43.937.066-87.873.042-131.81-.002-3.806-1.453-4.69-4.682-2.872-8.708 4.904-17.379 9.872-26.048 14.842a11140.06 11140.06 0 0 0-29.413 16.927c-8.73 5.039-17.392 10.199-26.191 15.112-4.036 2.254-4.569 4.252-1.329 7.48 7.368 7.343 14.776 14.645 22.127 22.003 16.787 16.803 33.549 33.63 50.768 50.756Z" fill="#EEF2E8"/><path d="M644.014 830.271c-.529-.851-1.444-2.058-1.446-3.266-.072-50.652-.065-101.303-.032-151.955 0-.8.443-1.6.995-2.452.369 1.611.469 3.275.47 4.939.023 50.792.037 101.585.013 152.734Zm9.243-159.006c9.643-.364 19.357-.434 29.072-.465 1.529-.005 3.058.23 4.588.244 17.924.171 35.849.317 53.773.488.885.008 1.769.182 2.869.484-1.302.357-2.818.644-4.335.642-27.35-.028-54.7-.079-82.05-.188-1.283-.005-2.564-.585-3.917-1.205Zm158.738-11.151c6.309-3.558 12.92-7.005 19.802-10.51.083.395.019 1.095-.312 1.259-6.377 3.158-12.786 6.253-19.49 9.251Zm-18.48 6.164c2.061-1.171 4.403-2.362 6.853-3.258 3.185-1.164 6.457-2.093 9.896-3-2.796 1.649-5.705 3.408-8.826 4.626-2.393.934-5.053 1.187-7.923 1.632Zm-44.676 6.172c.559-.389 1.474-.838 2.414-.901 5.166-.347 10.339-.6 15.775-.757-.578.658-1.409 1.617-2.269 1.645-5.181.162-10.368.111-15.92.013Zm21.567-1.549c2.16-.669 4.674-1.219 7.434-1.644-1.624 3.234-4.615 1.322-7.434 1.644Zm9.243-1.538c1.666-.669 3.674-1.221 5.915-1.646-1.703.672-3.638 1.217-5.915 1.646Zm7.691-1.545c1.187-.663 2.698-1.212 4.417-1.637-1.226.666-2.659 1.209-4.417 1.637Zm-143.198 4.743c.622-.629 1.543-1.247 2.673-1.742-.651.666-1.513 1.209-2.673 1.742Zm208.26-157.263c-.342-15.113-.379-30.296-.35-45.837.563.386 1.489 1.127 1.493 1.872.083 14.113.066 28.227.016 42.34-.002.519-.557 1.036-1.159 1.625ZM681.031 625.065c11.013-.341 22.064-.367 33.471-.323-.366.582-1.083 1.537-1.809 1.544-10.046.092-20.093.068-30.14.008-.496-.003-.989-.595-1.522-1.229Z" fill="#EEF2E8"/></g><defs><clipPath id="satsuma-lockup-stacked-light__a"><path fill="#fff" d="M0 0h1080v1369H0z"/></clipPath></defs></svg>