<svg width="1148" height="1148" fill="none" xmlns="http://www.w3.org/2000/svg"><path d="M809.219 637.08c-8.59 6.802-17.816 11.581-28.17 13.963-6.244 1.436-12.638 3.665-18.867 3.385-9.498-.427-19.194-1.759-28.297-4.437-14.593-4.292-26.674-13.081-35.931-25.222-6.351-8.329-11.415-17.252-14.307-27.679-2.82-10.168-4.259-20.238-3.088-30.526 1.647-14.476 6.363-27.821 15.195-39.828 6.676-9.076 14.375-16.693 24.038-22.294 11.098-6.432 22.808-10.304 35.845-11.939 17.944-2.251 33.863 2.427 48.552 11.111 14.152 8.367 25.23 20.661 31.375 36.114 9.669 24.318 8.561 48.33-4.12 71.688-5.525 10.178-13.681 17.812-22.225 25.664Z" fill="#D4681E"></path><path d="M724.216 1081.93c2.188.74 4.373 2.11 6.564 2.11 36.196.14 72.393.19 108.588.02 6.618-.03 9.713 3.22 9.697 9.49-.037 14.34.053 28.67-.043 43-.038 5.76-2.146 7.52-8.415 7.53-56.043.07-112.086.14-168.129.19-8.235.01-9.69-.9-9.798-9.12-.279-21.33-.229-42.66-.033-63.99.093-10.23 1.175-20.45 1.194-30.67.118-62.168.277-124.333-.1-186.494-.091-14.895 5.066-26.582 15.542-36.782 18.327-17.846 36.385-35.972 54.386-54.148 22.843-23.067 45.495-46.323 68.27-69.456 20.897-21.224 41.859-42.386 62.775-63.592 21.026-21.316 42.035-42.648 63.043-63.982 16.689-16.948 33.627-33.663 49.909-50.992 5.985-6.368 10.559-14.101 15.43-21.441 1.152-1.735 1.204-4.387 1.258-6.63.258-10.648.314-21.302.493-31.952.304-18.115.765-36.228.885-54.344.029-4.356-1.021-8.719-1.765-14.577-3.066 1.352-5.903 1.806-7.555 3.449-36.888 36.68-73.649 73.487-110.42 110.284-4.519 4.521-6.73 4.548-11.275.024-9.836-9.792-19.692-19.563-29.533-29.349-5.567-5.537-5.583-7.238-.11-12.693 43.113-42.974 86.192-85.981 129.384-128.875 6.137-6.094 8.616-15.583 1.843-23.904-10.07-12.371-21.236-23.422-34.613-32.158-3.276-2.139-6.587-4.267-10.062-6.052-9.146-4.699-12.753-4.083-20.154 3.28a36727.568 36727.568 0 0 0-62.823 62.627c-74.559 74.538-149.09 149.103-223.668 223.622-5.955 5.951-8.928 12.953-8.927 21.353.018 184.991.014 369.982.014 554.972 0 10.45-2.839 13.21-13.567 13.21-11.009 0-22.024-.21-33.025.07-8.248.22-15.642-4.63-15.617-15.53.263-114 .11-227.99.258-341.985.013-9.593-3.394-17.07-10.027-23.69-113.439-113.21-226.828-226.47-340.23-339.717-11.066-11.051-22.118-22.116-33.263-33.087-1.183-1.165-2.949-1.739-4.445-2.587-.623 1.634-1.783 3.266-1.789 4.902-.108 30.498-.254 60.999.056 91.494.069 6.735 3.163 12.702 8.181 17.675 27.209 26.961 54.251 54.09 81.418 81.094 45.466 45.193 90.96 90.358 136.492 135.484 11.285 11.184 22.973 21.967 34.105 33.297 18.15 18.474 36.085 37.161 53.92 55.938 6.515 6.859 13.21 13.818 16.162 23.115 1.56 4.91 2.999 10.132 3.011 15.217.232 96.659.228 193.32.34 289.98.005 4.53-1.717 6.56-6.352 6.56-58.215-.05-116.429-.05-174.644-.01-4.61 0-6.834-2.38-6.865-6.66-.11-15.5-.272-31 .072-46.49.134-6.04 2.984-6.96 7.353-6.94 36.696.21 73.393.12 110.09.12 7.96 0 8.275-.32 8.275-8 0-63.66-.063-127.328.077-190.991.018-8.19-3.265-11.585-11.21-10.728-6.269.677-12.648.398-18.979.441-40.004.268-80.009.855-120.011.647-32.847-.172-63.81-8.728-91.933-25.575-21.395-12.817-39.839-29.194-54.748-49.681-10.094-13.871-18.022-28.717-24.428-44.35-3.501-8.54-5.11-17.989-6.63-27.184-8.677-52.504-5.438-105.489-5.864-158.316-.179-22.128.486-44.262.7-66.395.27-27.806.456-55.612.704-83.418.148-16.607-.362-33.259.707-49.808 1.181-18.288 3.415-36.537 11.204-53.583 3.805-8.329 6.203-17.396 10.721-25.28 5.676-9.905 12.465-19.257 19.498-28.284 14.333-18.394 32.366-32.827 51.76-45.483 11.588-7.561 23.809-14.151 35.735-21.195 12.217-7.216 24.371-14.537 36.642-21.66 16.239-9.427 32.603-18.639 48.841-28.069 14.489-8.413 28.821-17.098 43.33-25.477 15.339-8.857 30.831-17.448 46.206-26.242 11.181-6.395 22.24-13.001 33.425-19.388 15.706-8.968 31.467-17.84 47.227-26.715 16.957-9.55 33.814-19.288 50.96-28.489 10.041-5.389 20.208-10.967 30.968-14.472 9.843-3.207 20.518-2.414 30.25 2.196 8.794 4.167 17.501 8.549 26.04 13.214 10.389 5.676 20.54 11.786 30.834 17.638 9.563 5.437 19.219 10.708 28.758 16.185 11.001 6.317 21.873 12.858 32.887 19.152 7.24 4.137 14.696 7.894 21.94 12.025 12.637 7.205 25.135 14.655 37.782 21.843 16.386 9.314 32.886 18.427 49.289 27.712a3329.294 3329.294 0 0 1 37.463 21.499c14.884 8.681 29.622 17.612 44.545 26.225 14.942 8.625 30.203 16.708 45.003 25.564 10.647 6.371 20.759 13.633 31.123 20.478 15.717 10.381 28.797 23.627 40.217 38.394 8.44 10.923 16.12 22.512 20.87 35.676 4 11.054 8.77 21.934 11.53 33.295 2.75 11.342 4.67 23.169 4.82 34.812.91 68.1 1.25 136.209 1.67 204.315.21 34.492.62 68.992.13 103.477-.35 23.853-2.03 47.729-9.05 70.763-4.02 13.207-9.82 25.721-18.02 36.931-7.43 10.16-14.38 20.83-22.95 29.953-10.741 11.429-23.167 21.187-37.667 29.13-9.22 4.744-17.802 9.216-26.385 13.688-.36 0-.719 0-1.601-.07-4.72 1.267-8.967 2.472-13.102 3.982-3.181 1.162-6.221 2.707-9.324 4.082a18.572 18.572 0 0 1-1.602-.075c-2.485.644-4.447 1.356-6.408 2.069a17.923 17.923 0 0 1-1.632-.075c-3.163.644-5.769 1.36-8.376 2.076a20.179 20.179 0 0 1-1.652-.08c-3.837.645-7.1 1.358-10.364 2.072a70.017 70.017 0 0 1-3.577-.079c-7.407.296-14.122.624-20.829 1.074-1.221.082-2.408.664-3.611 1.016-1.781-.033-3.561-.067-5.999-.388-1.807-.415-2.954-.641-4.104-.652-23.27-.221-46.54-.41-69.81-.632-1.987-.019-3.972-.323-5.958-.317-12.611.041-25.223.132-37.835.206-2.375-.076-4.75-.152-7.832-.284-1.903.746-3.1 1.547-4.296 2.349 0 0 .13.106-.343.118-.779 1.05-1.354 2.087-1.354 3.125-.043 65.701-.052 131.403.041 197.103.002 1.57 1.191 3.13 1.826 4.7Zm269.995-469.852v-25.832c-2.717.857-4.741.882-5.755 1.906-14.121 14.255-28.124 28.626-42.113 43.01-12.386 12.737-24.716 25.528-37.076 38.288-17.048 17.6-34.057 35.238-51.165 52.779-17.648 18.095-35.427 36.062-53.086 54.146-10.803 11.065-21.545 22.192-32.123 33.471-.934.996-.445 3.324-.519 5.854.642.412 1.282 1.18 1.927 1.184 13.043.077 26.087.109 39.129-.011.942-.009 1.873-1.247 3.721-2.156 11.957-.428 23.921-.716 35.869-1.322 12.92-.656 25.815-1.871 38.739-2.353 11.821-.44 22.843-4.125 33.191-8.97 22.213-10.402 39.744-26.769 52.663-47.433 11.004-17.598 15.73-37.434 16.313-58.186.22-7.815.328-15.634 1.278-23.637.385-.672 1.106-1.342 1.108-2.015.066-18.306.087-36.613-.02-54.919-.006-.968-1.207-1.928-2.081-3.804ZM344.055 367.287c-34.224-34.183-68.47-68.344-102.632-102.589-2.736-2.743-5.45-4.443-9.138-2.445-4.893 2.652-9.842 5.266-14.444 8.374-13.35 9.015-24.548 20.357-35.114 32.461-7.881 9.028-5.755 19.378 1.508 26.606 110.086 109.559 219.931 219.36 329.777 329.159 8.855 8.851 17.312 18.1 25.954 27.164l2.27-.845c.54-2.306 1.543-4.61 1.55-6.918.102-32.996.128-65.993.03-98.99-.025-8.532-2.918-15.826-9.276-22.031-19.583-19.109-38.872-38.517-58.243-57.842a116381.38 116381.38 0 0 1-132.242-132.104Zm372.562-119.356c-1.095 1.202-2.142 2.451-3.293 3.597-34.952 34.797-69.957 69.541-104.773 104.473-2.187 2.193-4.114 5.826-4.139 8.807-.285 34.817-.225 69.639-.068 104.458.009 1.909 1.265 4.861 2.699 5.435 1.589.636 4.124-.73 6.105-1.562 1.105-.464 1.966-1.568 2.86-2.462 66.451-66.417 132.889-132.846 199.341-199.261 12.093-12.086 24.246-24.11 36.354-36.181 3.349-3.339 3.689-7.412.559-9.23-13.172-7.65-26.453-15.114-39.649-22.722-7.381-4.255-14.785-8.487-21.98-13.043-8.215-5.203-10.489-5.478-15.559-.421-19.284 19.232-38.53 38.501-58.457 58.112Zm-286.572-2.513c-18.916-18.928-37.858-37.83-56.719-56.813-2.609-2.625-4.708-3.775-8.509-1.548-21.126 12.384-42.473 24.391-63.652 36.687-7.634 4.433-7.596 5.276-1.177 11.686 76.572 76.47 153.15 152.933 229.727 229.398 4.218 4.211 8.444 8.415 12.666 12.622l1.582-.532c.529-2.519 1.525-5.045 1.483-7.555-.07-4.214-1.028-8.408-1.213-12.627-.761-17.376-1.499-34.755-1.999-52.139-.411-14.312-.297-28.64-.843-42.945-.109-2.836-1.448-6.306-3.422-8.289-35.732-35.904-71.648-71.624-107.924-107.945ZM202.783 629.426c-7.044-6.778-14.131-13.513-21.121-20.347-6.829-6.677-13.472-13.547-20.408-20.11-1.328-1.256-3.638-1.476-5.494-2.174-.536 1.566-1.374 3.101-1.54 4.705-.308 2.972-.34 5.986-.283 8.979.559 29.583 1.246 59.163 1.719 88.747.295 18.41 2.607 36.427 10.581 53.223 11.467 24.156 29.313 42.675 52.319 55.975 14.943 8.638 31.525 12.937 48.74 13.779a1819.209 1819.209 0 0 0 64.849 1.993c15.469.204 30.951-.428 46.424-.838 1.777-.047 3.529-1.068 5.293-1.637-.951-1.591-1.622-3.463-2.896-4.728-13.02-12.92-26.228-25.652-39.213-38.608-46.202-46.102-92.337-92.272-138.97-138.959ZM614.256 90.15c-1.029-.494-2.071-.964-3.086-1.485-5.272-2.707-6.933-1.705-6.935 4.373-.016 56.776-.031 113.552.078 170.327.005 2.077 1.302 4.15 2.225 6.908 2.254-1.922 3.565-2.896 4.71-4.038 36.15-36.045 72.286-72.104 108.414-108.171 3.467-3.461 3.031-5.545-1.62-8.157-10.398-5.84-20.865-11.559-31.181-17.539-15.005-8.697-29.874-17.629-44.857-26.367-8.983-5.238-18.071-10.296-27.748-15.851Zm-89.425 161.451c4.28 4.163 8.468 8.427 12.905 12.416 1.09.98 3.181 1.707 4.458 1.335.915-.265 1.753-2.555 1.755-3.943.087-56.991.086-113.982.055-170.972-.003-4.937-1.887-6.084-6.079-3.726-11.304 6.36-22.562 12.805-33.817 19.252a14729.299 14729.299 0 0 0-38.186 21.956c-11.333 6.537-22.578 13.229-34.002 19.603-5.239 2.923-5.931 5.515-1.725 9.702 9.565 9.524 19.183 18.996 28.727 28.541 21.793 21.795 43.554 43.621 65.909 65.836Z" fill="#EEF2E8"></path><path d="M724.268 1081.47c-.687-1.11-1.876-2.67-1.878-4.24-.093-65.7-.084-131.402-.041-197.103 0-1.038.575-2.075 1.291-3.181.48 2.09.609 4.248.61 6.406.031 65.885.049 131.768.018 198.118Zm11.999-206.253c12.519-.472 25.131-.563 37.743-.604 1.985-.006 3.97.298 5.957.317 23.27.222 46.54.411 69.81.632 1.15.011 2.297.237 3.725.628-1.69.463-3.659.836-5.628.834-35.507-.038-71.014-.104-106.521-.244-1.666-.007-3.329-.76-5.086-1.563Zm206.083-14.464c8.191-4.615 16.773-9.087 25.708-13.632.107.511.024 1.42-.405 1.632-8.28 4.096-16.6 8.111-25.303 12Zm-23.992 7.995c2.676-1.519 5.716-3.064 8.897-4.226 4.135-1.51 8.382-2.715 12.847-3.891-3.629 2.139-7.407 4.42-11.459 6-3.107 1.211-6.559 1.539-10.285 2.117Zm-58.002 8.007c.726-.505 1.914-1.087 3.135-1.169 6.707-.45 13.422-.778 20.48-.981-.751.852-1.83 2.097-2.946 2.132-6.726.211-13.46.144-20.669.018Zm27.999-2.01c2.805-.868 6.069-1.581 9.653-2.132-2.109 4.194-5.992 1.714-9.653 2.132Zm12.001-1.995c2.164-.867 4.77-1.583 7.679-2.135-2.21.871-4.723 1.578-7.679 2.135Zm9.985-2.004c1.541-.861 3.503-1.573 5.734-2.124-1.591.864-3.453 1.568-5.734 2.124Zm-185.907 6.153c.809-.816 2.005-1.618 3.473-2.261-.846.865-1.966 1.57-3.473 2.261Zm270.374-203.99c-.444-19.603-.492-39.298-.454-59.456.731.501 1.932 1.461 1.938 2.429.107 18.306.086 36.613.02 54.919-.002.673-.722 1.343-1.504 2.108ZM772.325 815.29c14.298-.443 28.645-.476 43.453-.42-.475.756-1.406 1.994-2.348 2.003-13.042.12-26.086.088-39.129.011-.645-.004-1.285-.772-1.976-1.594Z" fill="#EEF2E8"></path></svg>