<svg width="1148" height="1148" fill="none" xmlns="http://www.w3.org/2000/svg"><g clip-path="url(#satsuma-logomark__a)"><path d="M813.01 637.08c-8.597 6.802-17.831 11.581-28.195 13.963-6.249 1.436-12.648 3.665-18.883 3.385-9.506-.427-19.211-1.759-28.321-4.437-14.606-4.292-26.698-13.081-35.963-25.222-6.356-8.329-11.424-17.252-14.319-27.679-2.822-10.168-4.263-20.238-3.091-30.526 1.649-14.476 6.369-27.821 15.208-39.828 6.683-9.076 14.388-16.693 24.059-22.294 11.108-6.432 22.828-10.304 35.877-11.939 17.959-2.251 33.893 2.427 48.594 11.111 14.164 8.367 25.253 20.661 31.402 36.114 9.678 24.318 8.569 48.33-4.123 71.688-5.53 10.178-13.693 17.812-22.245 25.664Z" fill="#D4681E"></path><path d="M723.768 1084.43c2.19.73 4.377 2.1 6.569 2.11 36.228.13 72.456.18 108.683.01 6.624-.03 9.721 3.22 9.705 9.5-.037 14.33.053 28.67-.043 43-.038 5.76-2.147 7.52-8.422 7.53-56.092.07-112.184.13-168.275.19-8.243.01-9.699-.9-9.807-9.12-.279-21.33-.23-42.67-.033-64 .093-10.22 1.175-20.44 1.195-30.67.118-62.162.277-124.327-.1-186.489-.091-14.894 5.071-26.581 15.555-36.781 18.344-17.846 36.417-35.972 54.434-54.149 22.863-23.066 45.534-46.322 68.33-69.455 20.915-21.225 41.895-42.387 62.829-63.592 21.044-21.317 42.072-42.649 63.099-63.983 16.703-16.947 33.655-33.662 49.952-50.991 5.99-6.369 10.568-14.102 15.443-21.441 1.153-1.736 1.205-4.388 1.26-6.63.258-10.649.314-21.302.493-31.953.304-18.114.765-36.228.885-54.343.029-4.356-1.021-8.719-1.766-14.577-3.068 1.351-5.908 1.805-7.562 3.448-36.92 36.68-73.713 73.487-110.516 110.284-4.522 4.522-6.736 4.549-11.285.024-9.844-9.791-19.709-19.562-29.558-29.348-5.573-5.537-5.588-7.238-.11-12.694 43.15-42.973 86.266-85.981 129.497-128.874 6.142-6.094 8.623-15.583 1.844-23.905-10.079-12.371-21.255-23.421-34.643-32.157-3.279-2.14-6.594-4.268-10.071-6.053-9.154-4.698-12.765-4.083-20.172 3.281a37501.15 37501.15 0 0 0-62.878 62.627c-74.624 74.537-149.22 149.102-223.862 223.621-5.961 5.951-8.936 12.954-8.935 21.354.018 184.991.013 369.982.013 554.976 0 10.44-2.84 13.21-13.578 13.21-11.019 0-22.043-.22-33.054.07-8.255.22-15.655-4.63-15.63-15.54.263-113.99.109-227.985.258-341.979.012-9.593-3.397-17.071-10.037-23.691C419.938 654.04 306.45 540.78 192.949 427.533c-11.075-11.05-22.137-22.115-33.292-33.086-1.184-1.165-2.952-1.739-4.449-2.588-.623 1.634-1.784 3.267-1.79 4.903-.109 30.498-.254 60.998.056 91.494.068 6.735 3.165 12.701 8.188 17.674 27.232 26.962 54.298 54.09 81.489 81.094a130230.08 130230.08 0 0 0 136.611 135.484c11.294 11.184 22.993 21.967 34.134 33.298 18.166 18.474 36.117 37.16 53.968 55.938 6.52 6.859 13.221 13.818 16.176 23.114 1.561 4.91 3.001 10.133 3.014 15.217.231 96.66.228 193.325.339 289.985.006 4.52-1.717 6.56-6.357 6.55-58.265-.05-116.531-.04-174.796-.01-4.614.01-6.84-2.37-6.871-6.65-.11-15.5-.273-31.01.071-46.5.134-6.03 2.988-6.96 7.36-6.93 36.728.2 73.457.12 110.186.11 7.968 0 8.282-.31 8.282-8 .001-63.66-.062-127.322.077-190.986.018-8.189-3.268-11.585-11.219-10.727-6.275.676-12.66.398-18.996.44-40.039.268-80.079.856-120.115.647-32.876-.171-63.866-8.728-92.014-25.575-21.413-12.816-39.873-29.194-54.795-49.68-10.103-13.871-18.038-28.718-24.45-44.35-3.503-8.541-5.114-17.989-6.635-27.184-8.685-52.505-5.444-105.49-5.87-158.316-.178-22.128.487-44.263.7-66.395.27-27.806.458-55.613.705-83.419.148-16.607-.362-33.259.708-49.808 1.182-18.287 3.418-36.537 11.213-53.582 3.81-8.329 6.209-17.396 10.731-25.281 5.681-9.904 12.476-19.256 19.515-28.283 14.345-18.395 32.394-32.827 51.806-45.483 11.597-7.561 23.829-14.152 35.766-21.196 12.227-7.216 24.392-14.537 36.673-21.66 16.253-9.427 32.632-18.639 48.884-28.068 14.502-8.414 28.846-17.099 43.368-25.478 15.352-8.857 30.858-17.447 46.246-26.241 11.191-6.395 22.259-13.002 33.454-19.388 15.72-8.969 31.495-17.841 47.268-26.716 16.973-9.55 33.844-19.288 51.005-28.488 10.05-5.39 20.226-10.968 30.995-14.473 9.852-3.207 20.536-2.414 30.276 2.197 8.802 4.166 17.517 8.548 26.063 13.213 10.399 5.677 20.559 11.787 30.862 17.639 9.57 5.436 19.235 10.707 28.782 16.184 11.011 6.318 21.893 12.859 32.916 19.153 7.246 4.137 14.709 7.894 21.959 12.024 12.648 7.206 25.157 14.655 37.815 21.844 16.4 9.313 32.914 18.427 49.332 27.711a3333.708 3333.708 0 0 1 37.496 21.499c14.896 8.682 29.648 17.613 44.583 26.226 14.956 8.624 30.23 16.707 45.043 25.564 10.656 6.37 20.777 13.632 31.15 20.477 15.731 10.381 28.825 23.628 40.255 38.394 8.45 10.923 16.13 22.513 20.89 35.677 4 11.054 8.77 21.934 11.53 33.295 2.76 11.341 4.68 23.169 4.83 34.811.91 68.101 1.25 136.209 1.67 204.316.22 34.492.63 68.992.13 103.476-.35 23.853-2.03 47.729-9.05 70.764-4.03 13.206-9.83 25.72-18.04 36.931-7.43 10.16-14.39 20.83-22.97 29.953-10.753 11.428-23.189 21.186-37.702 29.13a5657.844 5657.844 0 0 0-26.408 13.688c-.36 0-.72-.001-1.602-.07-4.725 1.267-8.975 2.472-13.114 3.982-3.184 1.161-6.227 2.707-9.332 4.081-.36-.002-.719-.004-1.603-.074-2.488.644-4.451 1.356-6.415 2.068-.358-.001-.717-.002-1.633-.075-3.165.644-5.774 1.36-8.383 2.076-.36-.003-.719-.006-1.653-.079-3.841.644-7.107 1.358-10.373 2.072a72.611 72.611 0 0 1-3.581-.079c-7.413.296-14.134.623-20.847 1.074-1.222.082-2.41.664-3.614 1.015-1.782-.033-3.564-.066-6.004-.388-1.809-.414-2.957-.64-4.108-.651-23.29-.221-46.581-.411-69.871-.633-1.988-.018-3.975-.323-5.963-.316-12.622.04-25.245.131-37.868.206-2.377-.077-4.754-.153-7.839-.285-1.905.746-3.102 1.548-4.299 2.35 0 0 .129.106-.344.118-.78 1.05-1.355 2.087-1.355 3.124-.043 65.702-.052 131.408.041 197.108.002 1.56 1.192 3.13 1.828 4.7Zm270.23-469.856v-25.832c-2.72.856-4.745.882-5.76 1.906-14.133 14.255-28.148 28.626-42.149 43.01-12.397 12.736-24.738 25.527-37.109 38.288-17.063 17.6-34.087 35.237-51.21 52.779-17.663 18.095-35.458 36.061-53.131 54.146-10.813 11.065-21.565 22.192-32.152 33.47-.935.996-.445 3.325-.519 5.854.643.412 1.283 1.18 1.928 1.184 13.054.078 26.11.109 39.163-.011.943-.008 1.875-1.246 3.725-2.155 11.967-.428 23.942-.717 35.9-1.323 12.932-.655 25.838-1.87 38.773-2.352 11.831-.441 22.863-4.126 33.22-8.971 22.232-10.401 39.778-26.769 52.709-47.432 11.013-17.599 15.743-37.435 16.327-58.186.22-7.816.328-15.634 1.279-23.637.386-.672 1.107-1.342 1.109-2.015.066-18.307.087-36.614-.02-54.92-.006-.967-1.208-1.928-2.083-3.803ZM343.275 369.783c-34.254-34.183-68.53-68.345-102.721-102.59-2.739-2.742-5.456-4.443-9.146-2.444-4.898 2.651-9.851 5.266-14.457 8.373-13.362 9.016-24.569 20.358-35.145 32.462-7.887 9.028-5.76 19.377 1.51 26.605 110.182 109.559 220.122 219.361 330.065 329.16 8.862 8.851 17.326 18.1 25.976 27.164l2.272-.845c.54-2.306 1.544-4.611 1.551-6.918.102-32.997.128-65.994.03-98.99-.025-8.532-2.92-15.826-9.284-22.031-19.599-19.109-38.906-38.518-58.294-57.842a116952.74 116952.74 0 0 1-132.357-132.104Zm372.887-119.356c-1.096 1.201-2.144 2.451-3.295 3.596-34.983 34.797-70.019 69.542-104.866 104.473-2.188 2.193-4.117 5.827-4.142 8.807-.286 34.818-.225 69.639-.068 104.459.009 1.909 1.266 4.86 2.701 5.434 1.591.637 4.128-.729 6.111-1.561 1.105-.464 1.968-1.569 2.862-2.462 66.509-66.417 133.005-132.846 199.515-199.262 12.103-12.085 24.268-24.109 36.385-36.18 3.353-3.34 3.693-7.413.56-9.23-13.183-7.65-26.475-15.114-39.683-22.722-7.388-4.256-14.798-8.487-21.999-13.043-8.223-5.203-10.498-5.478-15.573-.421-19.3 19.232-38.564 38.501-58.508 58.112Zm-286.822-2.514c-18.933-18.927-37.891-37.83-56.769-56.812-2.61-2.625-4.712-3.776-8.516-1.548-21.144 12.383-42.51 24.391-63.707 36.687-7.641 4.432-7.603 5.275-1.178 11.686 76.639 76.469 153.283 152.933 229.927 229.397 4.221 4.212 8.451 8.415 12.677 12.623l1.583-.532c.53-2.519 1.526-5.046 1.484-7.555-.07-4.214-1.028-8.408-1.213-12.628-.762-17.375-1.501-34.754-2.001-52.139-.412-14.311-.297-28.64-.844-42.945-.109-2.836-1.449-6.305-3.425-8.289-35.763-35.903-71.711-71.624-108.018-107.945ZM201.88 631.921c-7.051-6.778-14.144-13.512-21.139-20.346-6.835-6.677-13.484-13.548-20.426-20.11-1.329-1.256-3.641-1.476-5.5-2.175-.535 1.567-1.374 3.101-1.541 4.706-.308 2.971-.34 5.986-.283 8.978.56 29.583 1.247 59.164 1.721 88.747.294 18.411 2.609 36.427 10.589 53.224 11.478 24.156 29.339 42.675 52.365 55.974 14.956 8.638 31.553 12.938 48.783 13.78a1822.274 1822.274 0 0 0 64.905 1.992c15.483.205 30.979-.427 46.465-.837 1.779-.047 3.532-1.068 5.298-1.638-.952-1.59-1.623-3.462-2.899-4.727-13.031-12.921-26.251-25.653-39.247-38.609-46.242-46.102-92.418-92.271-139.091-138.959ZM613.712 92.646c-1.03-.494-2.073-.964-3.089-1.485-5.276-2.707-6.939-1.705-6.941 4.372-.016 56.776-.032 113.552.078 170.328.005 2.076 1.303 4.15 2.227 6.907 2.256-1.922 3.569-2.896 4.714-4.037 36.181-36.046 72.349-72.105 108.509-108.172 3.47-3.46 3.034-5.544-1.622-8.157-10.407-5.839-20.883-11.559-31.208-17.538-15.018-8.698-29.9-17.63-44.896-26.367-8.99-5.239-18.087-10.296-27.772-15.851Zm-89.504 161.451c4.284 4.162 8.476 8.427 12.917 12.415 1.091.981 3.183 1.707 4.461 1.336.916-.266 1.755-2.555 1.757-3.943.087-56.991.086-113.982.055-170.973-.002-4.936-1.888-6.084-6.084-3.725-11.314 6.36-22.581 12.805-33.847 19.251a14917.452 14917.452 0 0 0-38.218 21.957c-11.343 6.536-22.598 13.229-34.032 19.602-5.244 2.923-5.937 5.516-1.727 9.703 9.574 9.524 19.2 18.995 28.752 28.54 21.812 21.795 43.592 43.622 65.966 65.837Z" fill="#2E5428"></path><path d="M723.82 1083.96c-.688-1.1-1.878-2.67-1.88-4.23-.093-65.7-.084-131.406-.041-197.108 0-1.037.575-2.074 1.292-3.181.48 2.09.61 4.249.611 6.407.031 65.884.049 131.772.018 198.112Zm12.009-206.248c12.53-.472 25.153-.563 37.776-.603 1.987-.007 3.974.298 5.962.316 23.29.222 46.581.412 69.871.633 1.151.011 2.299.237 3.729.628-1.692.463-3.663.835-5.633.833-35.539-.037-71.077-.103-106.615-.244-1.667-.006-3.332-.759-5.09-1.563Zm206.263-14.464c8.198-4.614 16.788-9.086 25.73-13.632.108.512.024 1.42-.405 1.633-8.287 4.096-16.614 8.11-25.325 11.999Zm-24.013 7.995c2.678-1.518 5.721-3.064 8.905-4.225 4.139-1.51 8.389-2.715 12.858-3.892-3.632 2.139-7.413 4.42-11.468 6-3.11 1.212-6.566 1.54-10.295 2.117Zm-58.052 8.007c.727-.504 1.915-1.086 3.137-1.168a532.683 532.683 0 0 1 20.498-.982c-.752.853-1.831 2.098-2.949 2.133-6.731.211-13.471.144-20.686.017Zm28.023-2.009c2.808-.868 6.074-1.582 9.661-2.132-2.11 4.194-5.997 1.714-9.661 2.132Zm12.011-1.996c2.166-.867 4.775-1.583 7.686-2.135-2.212.872-4.727 1.579-7.686 2.135Zm9.994-2.004c1.543-.86 3.506-1.572 5.739-2.124-1.592.865-3.455 1.569-5.739 2.124Zm-186.069 6.154c.809-.817 2.006-1.619 3.476-2.261-.847.864-1.968 1.57-3.476 2.261Zm270.61-203.991c-.445-19.602-.493-39.298-.455-59.456.732.501 1.934 1.462 1.94 2.429.107 18.306.086 36.613.02 54.92-.002.673-.723 1.343-1.505 2.107ZM771.919 817.785c14.31-.443 28.669-.476 43.491-.419-.476.756-1.408 1.994-2.351 2.002-13.053.12-26.109.089-39.163.011-.645-.004-1.285-.772-1.977-1.594Z" fill="#2E5428"></path></g><defs><clipPath id="satsuma-logomark__a"><path fill="#fff" d="M0 0h1148v1148H0z"></path></clipPath></defs></svg>